<svg xmlns="http://www.w3.org/2000/svg" xmlns:xlink="http://www.w3.org/1999/xlink" width="500" zoomAndPan="magnify" viewBox="0 0 375 374.999991" height="500" preserveAspectRatio="xMidYMid meet" version="1.0"><defs><g/><clipPath id="d2a980758e"><path d="M 17.25 0 L 357.75 0 C 362.324219 0 366.710938 1.816406 369.949219 5.050781 C 373.183594 8.289062 375 12.675781 375 17.25 L 375 357.75 C 375 362.324219 373.183594 366.710938 369.949219 369.949219 C 366.710938 373.183594 362.324219 375 357.75 375 L 17.25 375 C 12.675781 375 8.289062 373.183594 5.050781 369.949219 C 1.816406 366.710938 0 362.324219 0 357.75 L 0 17.25 C 0 12.675781 1.816406 8.289062 5.050781 5.050781 C 8.289062 1.816406 12.675781 0 17.25 0 Z M 17.25 0 " clip-rule="nonzero"/></clipPath><clipPath id="5da3bada37"><path d="M 0 0 L 375 0 L 375 375 L 0 375 Z M 0 0 " clip-rule="nonzero"/></clipPath><clipPath id="d83d38bb6b"><path d="M 17.25 0 L 357.75 0 C 362.324219 0 366.710938 1.816406 369.949219 5.050781 C 373.183594 8.289062 375 12.675781 375 17.25 L 375 357.75 C 375 362.324219 373.183594 366.710938 369.949219 369.949219 C 366.710938 373.183594 362.324219 375 357.75 375 L 17.25 375 C 12.675781 375 8.289062 373.183594 5.050781 369.949219 C 1.816406 366.710938 0 362.324219 0 357.75 L 0 17.25 C 0 12.675781 1.816406 8.289062 5.050781 5.050781 C 8.289062 1.816406 12.675781 0 17.25 0 Z M 17.25 0 " clip-rule="nonzero"/></clipPath><linearGradient x1="0" gradientTransform="matrix(1.464844, 0, 0, 1.464844, 0.0000045, 0)" y1="256" x2="256" gradientUnits="userSpaceOnUse" y2="0" id="3cb3476743"><stop stop-opacity="1" stop-color="rgb(57.649231%, 34.509277%, 96.859741%)" offset="0"/><stop stop-opacity="1" stop-color="rgb(57.495117%, 34.701538%, 96.832275%)" offset="0.0078125"/><stop stop-opacity="1" stop-color="rgb(57.188416%, 35.087585%, 96.775818%)" offset="0.015625"/><stop stop-opacity="1" stop-color="rgb(56.88324%, 35.473633%, 96.720886%)" offset="0.0234375"/><stop stop-opacity="1" stop-color="rgb(56.576538%, 35.85968%, 96.665955%)" offset="0.03125"/><stop stop-opacity="1" stop-color="rgb(56.269836%, 36.245728%, 96.611023%)" offset="0.0390625"/><stop stop-opacity="1" stop-color="rgb(55.963135%, 36.631775%, 96.556091%)" offset="0.046875"/><stop stop-opacity="1" stop-color="rgb(55.656433%, 37.017822%, 96.50116%)" offset="0.0546875"/><stop stop-opacity="1" stop-color="rgb(55.351257%, 37.40387%, 96.444702%)" offset="0.0625"/><stop stop-opacity="1" stop-color="rgb(55.044556%, 37.789917%, 96.389771%)" offset="0.0703125"/><stop stop-opacity="1" stop-color="rgb(54.737854%, 38.175964%, 96.334839%)" offset="0.078125"/><stop stop-opacity="1" stop-color="rgb(54.431152%, 38.562012%, 96.279907%)" offset="0.0859375"/><stop stop-opacity="1" stop-color="rgb(54.124451%, 38.948059%, 96.224976%)" offset="0.09375"/><stop stop-opacity="1" stop-color="rgb(53.819275%, 39.334106%, 96.170044%)" offset="0.101562"/><stop stop-opacity="1" stop-color="rgb(53.512573%, 39.720154%, 96.115112%)" offset="0.109375"/><stop stop-opacity="1" stop-color="rgb(53.205872%, 40.106201%, 96.058655%)" offset="0.117188"/><stop stop-opacity="1" stop-color="rgb(52.89917%, 40.492249%, 96.003723%)" offset="0.125"/><stop stop-opacity="1" stop-color="rgb(52.592468%, 40.878296%, 95.948792%)" offset="0.132812"/><stop stop-opacity="1" stop-color="rgb(52.285767%, 41.265869%, 95.89386%)" offset="0.140625"/><stop stop-opacity="1" stop-color="rgb(51.980591%, 41.651917%, 95.838928%)" offset="0.148438"/><stop stop-opacity="1" stop-color="rgb(51.673889%, 42.037964%, 95.783997%)" offset="0.15625"/><stop stop-opacity="1" stop-color="rgb(51.367188%, 42.424011%, 95.729065%)" offset="0.164062"/><stop stop-opacity="1" stop-color="rgb(51.060486%, 42.810059%, 95.672607%)" offset="0.171875"/><stop stop-opacity="1" stop-color="rgb(50.753784%, 43.196106%, 95.617676%)" offset="0.179688"/><stop stop-opacity="1" stop-color="rgb(50.448608%, 43.582153%, 95.562744%)" offset="0.1875"/><stop stop-opacity="1" stop-color="rgb(50.141907%, 43.968201%, 95.507812%)" offset="0.195312"/><stop stop-opacity="1" stop-color="rgb(49.835205%, 44.354248%, 95.452881%)" offset="0.203125"/><stop stop-opacity="1" stop-color="rgb(49.528503%, 44.740295%, 95.397949%)" offset="0.210938"/><stop stop-opacity="1" stop-color="rgb(49.221802%, 45.126343%, 95.343018%)" offset="0.21875"/><stop stop-opacity="1" stop-color="rgb(48.916626%, 45.51239%, 95.28656%)" offset="0.226562"/><stop stop-opacity="1" stop-color="rgb(48.609924%, 45.898438%, 95.231628%)" offset="0.234375"/><stop stop-opacity="1" stop-color="rgb(48.303223%, 46.284485%, 95.176697%)" offset="0.242188"/><stop stop-opacity="1" stop-color="rgb(47.996521%, 46.670532%, 95.121765%)" offset="0.25"/><stop stop-opacity="1" stop-color="rgb(47.689819%, 47.05658%, 95.066833%)" offset="0.257812"/><stop stop-opacity="1" stop-color="rgb(47.384644%, 47.442627%, 95.011902%)" offset="0.265625"/><stop stop-opacity="1" stop-color="rgb(47.077942%, 47.828674%, 94.95697%)" offset="0.273438"/><stop stop-opacity="1" stop-color="rgb(46.77124%, 48.214722%, 94.900513%)" offset="0.28125"/><stop stop-opacity="1" stop-color="rgb(46.464539%, 48.600769%, 94.845581%)" offset="0.289062"/><stop stop-opacity="1" stop-color="rgb(46.157837%, 48.986816%, 94.790649%)" offset="0.296875"/><stop stop-opacity="1" stop-color="rgb(45.852661%, 49.372864%, 94.735718%)" offset="0.304688"/><stop stop-opacity="1" stop-color="rgb(45.545959%, 49.758911%, 94.680786%)" offset="0.3125"/><stop stop-opacity="1" stop-color="rgb(45.239258%, 50.144958%, 94.625854%)" offset="0.320312"/><stop stop-opacity="1" stop-color="rgb(44.932556%, 50.531006%, 94.569397%)" offset="0.328125"/><stop stop-opacity="1" stop-color="rgb(44.625854%, 50.917053%, 94.514465%)" offset="0.335938"/><stop stop-opacity="1" stop-color="rgb(44.320679%, 51.303101%, 94.459534%)" offset="0.34375"/><stop stop-opacity="1" stop-color="rgb(44.013977%, 51.689148%, 94.404602%)" offset="0.351562"/><stop stop-opacity="1" stop-color="rgb(43.707275%, 52.075195%, 94.34967%)" offset="0.359375"/><stop stop-opacity="1" stop-color="rgb(43.400574%, 52.461243%, 94.294739%)" offset="0.367188"/><stop stop-opacity="1" stop-color="rgb(43.093872%, 52.84729%, 94.239807%)" offset="0.375"/><stop stop-opacity="1" stop-color="rgb(42.78717%, 53.233337%, 94.18335%)" offset="0.382812"/><stop stop-opacity="1" stop-color="rgb(42.481995%, 53.619385%, 94.128418%)" offset="0.390625"/><stop stop-opacity="1" stop-color="rgb(42.175293%, 54.006958%, 94.073486%)" offset="0.398438"/><stop stop-opacity="1" stop-color="rgb(41.868591%, 54.393005%, 94.018555%)" offset="0.40625"/><stop stop-opacity="1" stop-color="rgb(41.56189%, 54.779053%, 93.963623%)" offset="0.414062"/><stop stop-opacity="1" stop-color="rgb(41.255188%, 55.1651%, 93.908691%)" offset="0.421875"/><stop stop-opacity="1" stop-color="rgb(40.950012%, 55.551147%, 93.85376%)" offset="0.429688"/><stop stop-opacity="1" stop-color="rgb(40.643311%, 55.937195%, 93.797302%)" offset="0.4375"/><stop stop-opacity="1" stop-color="rgb(40.336609%, 56.323242%, 93.742371%)" offset="0.445312"/><stop stop-opacity="1" stop-color="rgb(40.029907%, 56.70929%, 93.687439%)" offset="0.453125"/><stop stop-opacity="1" stop-color="rgb(39.723206%, 57.095337%, 93.632507%)" offset="0.460938"/><stop stop-opacity="1" stop-color="rgb(39.41803%, 57.481384%, 93.577576%)" offset="0.46875"/><stop stop-opacity="1" stop-color="rgb(39.111328%, 57.867432%, 93.522644%)" offset="0.476562"/><stop stop-opacity="1" stop-color="rgb(38.804626%, 58.253479%, 93.467712%)" offset="0.484375"/><stop stop-opacity="1" stop-color="rgb(38.497925%, 58.639526%, 93.411255%)" offset="0.492188"/><stop stop-opacity="1" stop-color="rgb(38.191223%, 59.025574%, 93.356323%)" offset="0.5"/><stop stop-opacity="1" stop-color="rgb(37.789917%, 59.414673%, 93.292236%)" offset="0.503906"/><stop stop-opacity="1" stop-color="rgb(37.542725%, 59.611511%, 93.255615%)" offset="0.507812"/><stop stop-opacity="1" stop-color="rgb(37.294006%, 59.806824%, 93.218994%)" offset="0.511719"/><stop stop-opacity="1" stop-color="rgb(37.046814%, 60.003662%, 93.182373%)" offset="0.515625"/><stop stop-opacity="1" stop-color="rgb(36.798096%, 60.198975%, 93.145752%)" offset="0.519531"/><stop stop-opacity="1" stop-color="rgb(36.549377%, 60.395813%, 93.109131%)" offset="0.523438"/><stop stop-opacity="1" stop-color="rgb(36.300659%, 60.591125%, 93.07251%)" offset="0.527344"/><stop stop-opacity="1" stop-color="rgb(36.053467%, 60.787964%, 93.035889%)" offset="0.53125"/><stop stop-opacity="1" stop-color="rgb(35.804749%, 60.983276%, 92.999268%)" offset="0.535156"/><stop stop-opacity="1" stop-color="rgb(35.557556%, 61.180115%, 92.962646%)" offset="0.539062"/><stop stop-opacity="1" stop-color="rgb(35.308838%, 61.375427%, 92.9245%)" offset="0.542969"/><stop stop-opacity="1" stop-color="rgb(35.06012%, 61.57074%, 92.887878%)" offset="0.546875"/><stop stop-opacity="1" stop-color="rgb(34.811401%, 61.766052%, 92.851257%)" offset="0.550781"/><stop stop-opacity="1" stop-color="rgb(34.564209%, 61.962891%, 92.814636%)" offset="0.554688"/><stop stop-opacity="1" stop-color="rgb(34.315491%, 62.158203%, 92.778015%)" offset="0.558594"/><stop stop-opacity="1" stop-color="rgb(34.068298%, 62.355042%, 92.741394%)" offset="0.5625"/><stop stop-opacity="1" stop-color="rgb(33.81958%, 62.550354%, 92.704773%)" offset="0.566406"/><stop stop-opacity="1" stop-color="rgb(33.570862%, 62.747192%, 92.668152%)" offset="0.570312"/><stop stop-opacity="1" stop-color="rgb(33.322144%, 62.942505%, 92.631531%)" offset="0.574219"/><stop stop-opacity="1" stop-color="rgb(33.074951%, 63.139343%, 92.59491%)" offset="0.578125"/><stop stop-opacity="1" stop-color="rgb(32.826233%, 63.334656%, 92.558289%)" offset="0.582031"/><stop stop-opacity="1" stop-color="rgb(32.579041%, 63.531494%, 92.521667%)" offset="0.585938"/><stop stop-opacity="1" stop-color="rgb(32.330322%, 63.726807%, 92.485046%)" offset="0.589844"/><stop stop-opacity="1" stop-color="rgb(32.081604%, 63.923645%, 92.448425%)" offset="0.59375"/><stop stop-opacity="1" stop-color="rgb(31.832886%, 64.118958%, 92.411804%)" offset="0.597656"/><stop stop-opacity="1" stop-color="rgb(31.585693%, 64.315796%, 92.375183%)" offset="0.601562"/><stop stop-opacity="1" stop-color="rgb(31.336975%, 64.511108%, 92.337036%)" offset="0.605469"/><stop stop-opacity="1" stop-color="rgb(31.089783%, 64.707947%, 92.300415%)" offset="0.609375"/><stop stop-opacity="1" stop-color="rgb(30.841064%, 64.903259%, 92.263794%)" offset="0.613281"/><stop stop-opacity="1" stop-color="rgb(30.593872%, 65.100098%, 92.227173%)" offset="0.617188"/><stop stop-opacity="1" stop-color="rgb(30.345154%, 65.29541%, 92.190552%)" offset="0.621094"/><stop stop-opacity="1" stop-color="rgb(30.096436%, 65.492249%, 92.153931%)" offset="0.625"/><stop stop-opacity="1" stop-color="rgb(29.847717%, 65.687561%, 92.11731%)" offset="0.628906"/><stop stop-opacity="1" stop-color="rgb(29.600525%, 65.884399%, 92.080688%)" offset="0.632812"/><stop stop-opacity="1" stop-color="rgb(29.351807%, 66.079712%, 92.044067%)" offset="0.636719"/><stop stop-opacity="1" stop-color="rgb(29.104614%, 66.27655%, 92.007446%)" offset="0.640625"/><stop stop-opacity="1" stop-color="rgb(28.855896%, 66.471863%, 91.970825%)" offset="0.644531"/><stop stop-opacity="1" stop-color="rgb(28.607178%, 66.667175%, 91.934204%)" offset="0.648438"/><stop stop-opacity="1" stop-color="rgb(28.358459%, 66.862488%, 91.897583%)" offset="0.652344"/><stop stop-opacity="1" stop-color="rgb(28.111267%, 67.059326%, 91.860962%)" offset="0.65625"/><stop stop-opacity="1" stop-color="rgb(27.862549%, 67.254639%, 91.824341%)" offset="0.660156"/><stop stop-opacity="1" stop-color="rgb(27.615356%, 67.451477%, 91.78772%)" offset="0.664062"/><stop stop-opacity="1" stop-color="rgb(27.366638%, 67.64679%, 91.749573%)" offset="0.667969"/><stop stop-opacity="1" stop-color="rgb(27.11792%, 67.843628%, 91.712952%)" offset="0.671875"/><stop stop-opacity="1" stop-color="rgb(26.869202%, 68.03894%, 91.676331%)" offset="0.675781"/><stop stop-opacity="1" stop-color="rgb(26.622009%, 68.235779%, 91.639709%)" offset="0.679688"/><stop stop-opacity="1" stop-color="rgb(26.373291%, 68.431091%, 91.603088%)" offset="0.683594"/><stop stop-opacity="1" stop-color="rgb(26.126099%, 68.62793%, 91.566467%)" offset="0.6875"/><stop stop-opacity="1" stop-color="rgb(25.87738%, 68.823242%, 91.529846%)" offset="0.691406"/><stop stop-opacity="1" stop-color="rgb(25.628662%, 69.020081%, 91.493225%)" offset="0.695312"/><stop stop-opacity="1" stop-color="rgb(25.379944%, 69.215393%, 91.456604%)" offset="0.699219"/><stop stop-opacity="1" stop-color="rgb(25.132751%, 69.412231%, 91.419983%)" offset="0.703125"/><stop stop-opacity="1" stop-color="rgb(24.884033%, 69.607544%, 91.383362%)" offset="0.707031"/><stop stop-opacity="1" stop-color="rgb(24.636841%, 69.804382%, 91.346741%)" offset="0.710938"/><stop stop-opacity="1" stop-color="rgb(24.388123%, 69.999695%, 91.31012%)" offset="0.714844"/><stop stop-opacity="1" stop-color="rgb(24.139404%, 70.196533%, 91.273499%)" offset="0.71875"/><stop stop-opacity="1" stop-color="rgb(23.890686%, 70.391846%, 91.236877%)" offset="0.722656"/><stop stop-opacity="1" stop-color="rgb(23.643494%, 70.588684%, 91.200256%)" offset="0.726562"/><stop stop-opacity="1" stop-color="rgb(23.394775%, 70.783997%, 91.162109%)" offset="0.730469"/><stop stop-opacity="1" stop-color="rgb(23.147583%, 70.980835%, 91.125488%)" offset="0.734375"/><stop stop-opacity="1" stop-color="rgb(22.898865%, 71.176147%, 91.088867%)" offset="0.738281"/><stop stop-opacity="1" stop-color="rgb(22.650146%, 71.37146%, 91.052246%)" offset="0.742188"/><stop stop-opacity="1" stop-color="rgb(22.401428%, 71.566772%, 91.015625%)" offset="0.746094"/><stop stop-opacity="1" stop-color="rgb(22.154236%, 71.763611%, 90.979004%)" offset="0.75"/><stop stop-opacity="1" stop-color="rgb(21.905518%, 71.958923%, 90.942383%)" offset="0.753906"/><stop stop-opacity="1" stop-color="rgb(21.658325%, 72.155762%, 90.905762%)" offset="0.757812"/><stop stop-opacity="1" stop-color="rgb(21.409607%, 72.351074%, 90.869141%)" offset="0.761719"/><stop stop-opacity="1" stop-color="rgb(21.160889%, 72.547913%, 90.83252%)" offset="0.765625"/><stop stop-opacity="1" stop-color="rgb(20.91217%, 72.743225%, 90.795898%)" offset="0.769531"/><stop stop-opacity="1" stop-color="rgb(20.664978%, 72.940063%, 90.759277%)" offset="0.773438"/><stop stop-opacity="1" stop-color="rgb(20.41626%, 73.135376%, 90.722656%)" offset="0.777344"/><stop stop-opacity="1" stop-color="rgb(20.169067%, 73.332214%, 90.686035%)" offset="0.78125"/><stop stop-opacity="1" stop-color="rgb(19.920349%, 73.527527%, 90.649414%)" offset="0.785156"/><stop stop-opacity="1" stop-color="rgb(19.671631%, 73.724365%, 90.612793%)" offset="0.789062"/><stop stop-opacity="1" stop-color="rgb(19.422913%, 73.919678%, 90.574646%)" offset="0.792969"/><stop stop-opacity="1" stop-color="rgb(19.17572%, 74.116516%, 90.538025%)" offset="0.796875"/><stop stop-opacity="1" stop-color="rgb(18.927002%, 74.311829%, 90.501404%)" offset="0.800781"/><stop stop-opacity="1" stop-color="rgb(18.67981%, 74.508667%, 90.464783%)" offset="0.804688"/><stop stop-opacity="1" stop-color="rgb(18.431091%, 74.703979%, 90.428162%)" offset="0.808594"/><stop stop-opacity="1" stop-color="rgb(18.182373%, 74.900818%, 90.391541%)" offset="0.8125"/><stop stop-opacity="1" stop-color="rgb(17.933655%, 75.09613%, 90.354919%)" offset="0.816406"/><stop stop-opacity="1" stop-color="rgb(17.686462%, 75.292969%, 90.318298%)" offset="0.820312"/><stop stop-opacity="1" stop-color="rgb(17.437744%, 75.488281%, 90.281677%)" offset="0.824219"/><stop stop-opacity="1" stop-color="rgb(17.190552%, 75.68512%, 90.245056%)" offset="0.828125"/><stop stop-opacity="1" stop-color="rgb(16.941833%, 75.880432%, 90.208435%)" offset="0.832031"/><stop stop-opacity="1" stop-color="rgb(16.693115%, 76.077271%, 90.171814%)" offset="0.835938"/><stop stop-opacity="1" stop-color="rgb(16.444397%, 76.272583%, 90.135193%)" offset="0.839844"/><stop stop-opacity="1" stop-color="rgb(16.197205%, 76.467896%, 90.098572%)" offset="0.84375"/><stop stop-opacity="1" stop-color="rgb(15.948486%, 76.663208%, 90.060425%)" offset="0.847656"/><stop stop-opacity="1" stop-color="rgb(15.701294%, 76.860046%, 90.023804%)" offset="0.851562"/><stop stop-opacity="1" stop-color="rgb(15.452576%, 77.055359%, 89.987183%)" offset="0.855469"/><stop stop-opacity="1" stop-color="rgb(15.203857%, 77.252197%, 89.950562%)" offset="0.859375"/><stop stop-opacity="1" stop-color="rgb(14.955139%, 77.44751%, 89.91394%)" offset="0.863281"/><stop stop-opacity="1" stop-color="rgb(14.707947%, 77.644348%, 89.877319%)" offset="0.867188"/><stop stop-opacity="1" stop-color="rgb(14.459229%, 77.839661%, 89.840698%)" offset="0.871094"/><stop stop-opacity="1" stop-color="rgb(14.212036%, 78.036499%, 89.804077%)" offset="0.875"/><stop stop-opacity="1" stop-color="rgb(13.963318%, 78.231812%, 89.767456%)" offset="0.878906"/><stop stop-opacity="1" stop-color="rgb(13.7146%, 78.42865%, 89.730835%)" offset="0.882812"/><stop stop-opacity="1" stop-color="rgb(13.465881%, 78.623962%, 89.694214%)" offset="0.886719"/><stop stop-opacity="1" stop-color="rgb(13.218689%, 78.820801%, 89.657593%)" offset="0.890625"/><stop stop-opacity="1" stop-color="rgb(12.969971%, 79.016113%, 89.620972%)" offset="0.894531"/><stop stop-opacity="1" stop-color="rgb(12.722778%, 79.212952%, 89.584351%)" offset="0.898438"/><stop stop-opacity="1" stop-color="rgb(12.47406%, 79.408264%, 89.547729%)" offset="0.902344"/><stop stop-opacity="1" stop-color="rgb(12.226868%, 79.605103%, 89.511108%)" offset="0.90625"/><stop stop-opacity="1" stop-color="rgb(11.978149%, 79.800415%, 89.472961%)" offset="0.910156"/><stop stop-opacity="1" stop-color="rgb(11.729431%, 79.997253%, 89.43634%)" offset="0.914062"/><stop stop-opacity="1" stop-color="rgb(11.480713%, 80.192566%, 89.399719%)" offset="0.917969"/><stop stop-opacity="1" stop-color="rgb(11.233521%, 80.389404%, 89.363098%)" offset="0.921875"/><stop stop-opacity="1" stop-color="rgb(10.984802%, 80.584717%, 89.326477%)" offset="0.925781"/><stop stop-opacity="1" stop-color="rgb(10.73761%, 80.781555%, 89.289856%)" offset="0.929688"/><stop stop-opacity="1" stop-color="rgb(10.488892%, 80.976868%, 89.253235%)" offset="0.933594"/><stop stop-opacity="1" stop-color="rgb(10.240173%, 81.173706%, 89.216614%)" offset="0.9375"/><stop stop-opacity="1" stop-color="rgb(9.991455%, 81.369019%, 89.179993%)" offset="0.941406"/><stop stop-opacity="1" stop-color="rgb(9.744263%, 81.564331%, 89.143372%)" offset="0.945312"/><stop stop-opacity="1" stop-color="rgb(9.495544%, 81.759644%, 89.10675%)" offset="0.949219"/><stop stop-opacity="1" stop-color="rgb(9.248352%, 81.956482%, 89.070129%)" offset="0.953125"/><stop stop-opacity="1" stop-color="rgb(8.999634%, 82.151794%, 89.033508%)" offset="0.957031"/><stop stop-opacity="1" stop-color="rgb(8.750916%, 82.348633%, 88.996887%)" offset="0.960938"/><stop stop-opacity="1" stop-color="rgb(8.502197%, 82.543945%, 88.960266%)" offset="0.964844"/><stop stop-opacity="1" stop-color="rgb(8.255005%, 82.740784%, 88.923645%)" offset="0.96875"/><stop stop-opacity="1" stop-color="rgb(8.006287%, 82.936096%, 88.885498%)" offset="0.972656"/><stop stop-opacity="1" stop-color="rgb(7.759094%, 83.132935%, 88.848877%)" offset="0.976562"/><stop stop-opacity="1" stop-color="rgb(7.510376%, 83.328247%, 88.812256%)" offset="0.980469"/><stop stop-opacity="1" stop-color="rgb(7.261658%, 83.525085%, 88.775635%)" offset="0.984375"/><stop stop-opacity="1" stop-color="rgb(7.012939%, 83.720398%, 88.739014%)" offset="0.988281"/><stop stop-opacity="1" stop-color="rgb(6.765747%, 83.917236%, 88.702393%)" offset="0.992188"/><stop stop-opacity="1" stop-color="rgb(6.517029%, 84.112549%, 88.665771%)" offset="0.996094"/><stop stop-opacity="1" stop-color="rgb(6.269836%, 84.309387%, 88.62915%)" offset="1"/></linearGradient><clipPath id="e3152d5d61"><rect x="0" width="375" y="0" height="375"/></clipPath><clipPath id="51f3f9f426"><path d="M 100 53.570312 L 276.402344 53.570312 L 276.402344 279.320312 L 100 279.320312 Z M 100 53.570312 " clip-rule="nonzero"/></clipPath></defs><g clip-path="url(#d2a980758e)"><g transform="matrix(1, 0, 0, 1, 0, 0)"><g clip-path="url(#e3152d5d61)"><g clip-path="url(#5da3bada37)"><g clip-path="url(#d83d38bb6b)"><rect x="-82.5" fill="url(#3cb3476743)" width="540" height="539.999987" y="-82.499998"/></g></g></g></g></g><g clip-path="url(#51f3f9f426)"><path fill="#f7fbfa" d="M 100.675781 70.054688 C 98.695312 108.183594 140.851562 180.808594 161.332031 213.75 C 161.457031 213.953125 161.699219 214.039062 161.929688 213.964844 C 162.15625 213.886719 162.296875 213.671875 162.277344 213.433594 C 158.753906 173.125 147.636719 138.015625 178.980469 97.402344 C 178.984375 97.398438 178.988281 97.390625 178.992188 97.382812 C 182.304688 92.652344 185.566406 88.207031 189.066406 83.441406 C 193.722656 77.101562 198.789062 70.199219 204.28125 62.261719 C 204.421875 62.0625 204.402344 61.800781 204.238281 61.621094 C 204.074219 61.445312 203.816406 61.40625 203.605469 61.523438 C 171.273438 80.101562 131.476562 122.992188 103.300781 73.335938 C 103.296875 73.328125 103.292969 73.320312 103.285156 73.308594 C 102.726562 72.175781 102.183594 71.027344 101.652344 69.867188 C 101.554688 69.648438 101.324219 69.53125 101.089844 69.578125 C 100.855469 69.625 100.6875 69.816406 100.675781 70.054688 Z M 175.300781 118.664062 C 175.113281 118.664062 174.949219 118.570312 174.855469 118.40625 C 174.757812 118.242188 174.757812 118.054688 174.855469 117.894531 C 177.460938 113.417969 180.34375 108.933594 183.363281 104.515625 C 183.472656 104.355469 183.648438 104.273438 183.839844 104.292969 C 187.519531 104.679688 191.085938 105.324219 194.644531 106.242188 C 194.804688 106.285156 194.925781 106.390625 194.988281 106.546875 C 195.050781 106.703125 195.039062 106.863281 194.953125 107.003906 C 192.46875 111.117188 190.136719 115.289062 187.988281 119.515625 C 187.882812 119.722656 187.660156 119.828125 187.433594 119.785156 C 183.433594 119.003906 179.367188 118.628906 175.300781 118.664062 Z M 115.980469 187.097656 C 117.675781 199.75 123.394531 211.976562 133.132812 221.714844 C 156.707031 245.289062 194.925781 245.289062 218.5 221.714844 C 238.582031 201.632812 241.808594 170.46875 226.929688 146.867188 C 226.847656 146.738281 226.828125 146.597656 226.867188 146.453125 C 226.910156 146.308594 227 146.203125 227.132812 146.132812 C 231.226562 144.09375 235.539062 142.277344 239.96875 140.644531 C 240.203125 140.558594 240.460938 140.648438 240.589844 140.863281 C 256.628906 168.035156 253.957031 202.648438 233.644531 227.050781 C 233.472656 227.253906 233.484375 227.550781 233.671875 227.738281 L 246.371094 240.433594 C 246.570312 240.632812 246.894531 240.632812 247.09375 240.433594 L 248.769531 238.757812 C 249.105469 238.425781 249.675781 238.425781 250.011719 238.757812 L 276.09375 264.839844 C 276.269531 265.019531 276.359375 265.242188 276.359375 265.460938 L 276.34375 265.460938 C 276.34375 265.691406 276.257812 265.914062 276.09375 266.082031 L 262.867188 279.308594 C 262.699219 279.476562 262.476562 279.558594 262.246094 279.558594 L 262.246094 279.574219 C 262.027344 279.574219 261.804688 279.484375 261.625 279.308594 L 235.542969 253.226562 C 235.210938 252.890625 235.210938 252.320312 235.542969 251.984375 L 237.21875 250.308594 C 237.421875 250.109375 237.421875 249.785156 237.21875 249.585938 L 224.523438 236.886719 C 224.335938 236.699219 224.039062 236.6875 223.835938 236.855469 C 209.953125 248.410156 192.886719 254.191406 175.816406 254.191406 C 136.207031 254.191406 103.375 223.441406 100.8125 183.941406 C 99.820312 168.664062 103.464844 153.140625 111.75 139.679688 C 111.855469 139.511719 112.03125 139.421875 112.226562 139.4375 C 112.425781 139.453125 112.585938 139.566406 112.660156 139.75 C 114.929688 145.179688 117.355469 150.574219 119.875 155.859375 C 119.941406 155.992188 119.945312 156.132812 119.886719 156.269531 C 115.894531 166.089844 114.589844 176.738281 115.980469 187.097656 Z M 243.015625 95.878906 C 243.015625 107.871094 257.578125 113.902344 266.058594 105.421875 C 274.539062 96.941406 268.503906 82.378906 256.515625 82.378906 C 249.058594 82.378906 243.015625 88.421875 243.015625 95.878906 Z M 227.042969 75.566406 C 227.191406 75.386719 227.429688 75.328125 227.640625 75.421875 C 227.855469 75.515625 227.976562 75.730469 227.945312 75.960938 C 225.796875 91.785156 230.949219 103.453125 236.722656 110.550781 C 242.523438 117.683594 248.984375 120.210938 263.289062 125.339844 C 263.503906 125.417969 263.636719 125.621094 263.625 125.847656 C 263.613281 126.078125 263.460938 126.265625 263.238281 126.320312 C 247.070312 130.285156 226.066406 135.96875 216.234375 143.84375 C 197.652344 158.722656 190.117188 181.523438 181.300781 207.695312 C 181.222656 207.933594 180.988281 208.078125 180.738281 208.039062 C 180.492188 208 180.308594 207.796875 180.304688 207.546875 C 179.890625 187.867188 181.3125 156.414062 187.53125 139.574219 C 194.9375 119.519531 207.617188 99.140625 227.042969 75.566406 Z M 126.597656 68.234375 C 126.597656 60.128906 133.167969 53.5625 141.273438 53.5625 C 154.308594 53.5625 160.867188 69.394531 151.648438 78.613281 C 142.429688 87.832031 126.597656 81.273438 126.597656 68.234375 Z M 126.597656 68.234375 " fill-opacity="1" fill-rule="evenodd"/></g><g fill="#f7fbfa" fill-opacity="1"><g transform="translate(140.740845, 312.490556)"><g><path d="M 22.15625 -6.828125 C 22.394531 -7.003906 22.632812 -7.082031 22.875 -7.0625 C 23.125 -7.050781 23.3125 -6.957031 23.4375 -6.78125 L 25.5625 -3.53125 C 25.664062 -3.394531 25.675781 -3.21875 25.59375 -3 C 25.519531 -2.789062 25.378906 -2.613281 25.171875 -2.46875 C 24.421875 -1.882812 23.5625 -1.375 22.59375 -0.9375 C 21.632812 -0.5 20.632812 -0.160156 19.59375 0.078125 C 18.550781 0.328125 17.539062 0.453125 16.5625 0.453125 C 14.90625 0.453125 13.328125 0.210938 11.828125 -0.265625 C 10.335938 -0.742188 8.972656 -1.425781 7.734375 -2.3125 C 6.503906 -3.195312 5.4375 -4.25 4.53125 -5.46875 C 3.625 -6.6875 2.921875 -8.03125 2.421875 -9.5 C 1.929688 -10.96875 1.6875 -12.523438 1.6875 -14.171875 C 1.6875 -15.816406 1.929688 -17.375 2.421875 -18.84375 C 2.921875 -20.320312 3.625 -21.671875 4.53125 -22.890625 C 5.4375 -24.109375 6.503906 -25.160156 7.734375 -26.046875 C 8.972656 -26.929688 10.335938 -27.613281 11.828125 -28.09375 C 13.328125 -28.582031 14.90625 -28.828125 16.5625 -28.828125 C 17.507812 -28.828125 18.503906 -28.707031 19.546875 -28.46875 C 20.597656 -28.238281 21.625 -27.898438 22.625 -27.453125 C 23.625 -27.015625 24.507812 -26.484375 25.28125 -25.859375 C 25.519531 -25.679688 25.648438 -25.492188 25.671875 -25.296875 C 25.703125 -25.097656 25.664062 -24.925781 25.5625 -24.78125 L 23.4375 -21.5625 C 23.332031 -21.394531 23.164062 -21.296875 22.9375 -21.265625 C 22.707031 -21.234375 22.46875 -21.316406 22.21875 -21.515625 C 21.425781 -22.191406 20.523438 -22.703125 19.515625 -23.046875 C 18.503906 -23.398438 17.519531 -23.578125 16.5625 -23.578125 C 15.226562 -23.578125 13.976562 -23.335938 12.8125 -22.859375 C 11.644531 -22.378906 10.625 -21.707031 9.75 -20.84375 C 8.875 -19.988281 8.1875 -18.988281 7.6875 -17.84375 C 7.195312 -16.707031 6.953125 -15.484375 6.953125 -14.171875 C 6.953125 -12.859375 7.203125 -11.632812 7.703125 -10.5 C 8.203125 -9.375 8.890625 -8.382812 9.765625 -7.53125 C 10.648438 -6.675781 11.671875 -6.007812 12.828125 -5.53125 C 13.984375 -5.0625 15.226562 -4.828125 16.5625 -4.828125 C 17.488281 -4.828125 18.457031 -5 19.46875 -5.34375 C 20.476562 -5.695312 21.375 -6.191406 22.15625 -6.828125 Z M 22.15625 -6.828125 "/></g></g></g><g fill="#f7fbfa" fill-opacity="1"><g transform="translate(172.116239, 312.490556)"><g><path d="M 3.390625 -0.828125 L 3.390625 -27.578125 C 3.390625 -27.828125 3.46875 -28.023438 3.625 -28.171875 C 3.789062 -28.328125 3.988281 -28.40625 4.21875 -28.40625 L 14.671875 -28.40625 C 16.347656 -28.40625 17.914062 -28.175781 19.375 -27.71875 C 20.84375 -27.269531 22.171875 -26.625 23.359375 -25.78125 C 24.554688 -24.9375 25.578125 -23.925781 26.421875 -22.75 C 27.265625 -21.582031 27.914062 -20.273438 28.375 -18.828125 C 28.84375 -17.378906 29.078125 -15.832031 29.078125 -14.1875 C 29.078125 -12.5625 28.84375 -11.023438 28.375 -9.578125 C 27.914062 -8.140625 27.257812 -6.832031 26.40625 -5.65625 C 25.550781 -4.488281 24.53125 -3.476562 23.34375 -2.625 C 22.15625 -1.78125 20.820312 -1.128906 19.34375 -0.671875 C 17.875 -0.222656 16.296875 0 14.609375 0 L 4.25 0 C 4 0 3.789062 -0.078125 3.625 -0.234375 C 3.46875 -0.390625 3.390625 -0.585938 3.390625 -0.828125 Z M 8.671875 -5.015625 L 14.578125 -5.015625 C 15.921875 -5.015625 17.148438 -5.25 18.265625 -5.71875 C 19.390625 -6.195312 20.363281 -6.851562 21.1875 -7.6875 C 22.007812 -8.53125 22.644531 -9.503906 23.09375 -10.609375 C 23.550781 -11.722656 23.78125 -12.914062 23.78125 -14.1875 C 23.78125 -15.5 23.550781 -16.710938 23.09375 -17.828125 C 22.644531 -18.953125 22.007812 -19.9375 21.1875 -20.78125 C 20.375 -21.632812 19.410156 -22.296875 18.296875 -22.765625 C 17.191406 -23.234375 15.976562 -23.46875 14.65625 -23.46875 L 8.671875 -23.453125 Z M 8.671875 -5.015625 "/></g></g></g><g fill="#f7fbfa" fill-opacity="1"><g transform="translate(206.707973, 312.490556)"><g><path d="M 22.15625 -6.828125 C 22.394531 -7.003906 22.632812 -7.082031 22.875 -7.0625 C 23.125 -7.050781 23.3125 -6.957031 23.4375 -6.78125 L 25.5625 -3.53125 C 25.664062 -3.394531 25.675781 -3.21875 25.59375 -3 C 25.519531 -2.789062 25.378906 -2.613281 25.171875 -2.46875 C 24.421875 -1.882812 23.5625 -1.375 22.59375 -0.9375 C 21.632812 -0.5 20.632812 -0.160156 19.59375 0.078125 C 18.550781 0.328125 17.539062 0.453125 16.5625 0.453125 C 14.90625 0.453125 13.328125 0.210938 11.828125 -0.265625 C 10.335938 -0.742188 8.972656 -1.425781 7.734375 -2.3125 C 6.503906 -3.195312 5.4375 -4.25 4.53125 -5.46875 C 3.625 -6.6875 2.921875 -8.03125 2.421875 -9.5 C 1.929688 -10.96875 1.6875 -12.523438 1.6875 -14.171875 C 1.6875 -15.816406 1.929688 -17.375 2.421875 -18.84375 C 2.921875 -20.320312 3.625 -21.671875 4.53125 -22.890625 C 5.4375 -24.109375 6.503906 -25.160156 7.734375 -26.046875 C 8.972656 -26.929688 10.335938 -27.613281 11.828125 -28.09375 C 13.328125 -28.582031 14.90625 -28.828125 16.5625 -28.828125 C 17.507812 -28.828125 18.503906 -28.707031 19.546875 -28.46875 C 20.597656 -28.238281 21.625 -27.898438 22.625 -27.453125 C 23.625 -27.015625 24.507812 -26.484375 25.28125 -25.859375 C 25.519531 -25.679688 25.648438 -25.492188 25.671875 -25.296875 C 25.703125 -25.097656 25.664062 -24.925781 25.5625 -24.78125 L 23.4375 -21.5625 C 23.332031 -21.394531 23.164062 -21.296875 22.9375 -21.265625 C 22.707031 -21.234375 22.46875 -21.316406 22.21875 -21.515625 C 21.425781 -22.191406 20.523438 -22.703125 19.515625 -23.046875 C 18.503906 -23.398438 17.519531 -23.578125 16.5625 -23.578125 C 15.226562 -23.578125 13.976562 -23.335938 12.8125 -22.859375 C 11.644531 -22.378906 10.625 -21.707031 9.75 -20.84375 C 8.875 -19.988281 8.1875 -18.988281 7.6875 -17.84375 C 7.195312 -16.707031 6.953125 -15.484375 6.953125 -14.171875 C 6.953125 -12.859375 7.203125 -11.632812 7.703125 -10.5 C 8.203125 -9.375 8.890625 -8.382812 9.765625 -7.53125 C 10.648438 -6.675781 11.671875 -6.007812 12.828125 -5.53125 C 13.984375 -5.0625 15.226562 -4.828125 16.5625 -4.828125 C 17.488281 -4.828125 18.457031 -5 19.46875 -5.34375 C 20.476562 -5.695312 21.375 -6.191406 22.15625 -6.828125 Z M 22.15625 -6.828125 "/></g></g></g><g fill="#f7fbfa" fill-opacity="0.4"><g transform="translate(73.476962, 329.257507)"><g><path d="M 6.140625 -1.890625 C 6.203125 -1.941406 6.265625 -1.960938 6.328125 -1.953125 C 6.398438 -1.953125 6.453125 -1.925781 6.484375 -1.875 L 7.078125 -0.984375 C 7.109375 -0.941406 7.113281 -0.890625 7.09375 -0.828125 C 7.070312 -0.773438 7.03125 -0.726562 6.96875 -0.6875 C 6.757812 -0.519531 6.519531 -0.375 6.25 -0.25 C 5.988281 -0.132812 5.710938 -0.046875 5.421875 0.015625 C 5.140625 0.0859375 4.863281 0.125 4.59375 0.125 C 4.132812 0.125 3.695312 0.0546875 3.28125 -0.078125 C 2.863281 -0.210938 2.484375 -0.398438 2.140625 -0.640625 C 1.796875 -0.890625 1.5 -1.179688 1.25 -1.515625 C 1 -1.847656 0.804688 -2.21875 0.671875 -2.625 C 0.535156 -3.039062 0.46875 -3.472656 0.46875 -3.921875 C 0.46875 -4.378906 0.535156 -4.8125 0.671875 -5.21875 C 0.804688 -5.625 1 -5.992188 1.25 -6.328125 C 1.5 -6.671875 1.796875 -6.960938 2.140625 -7.203125 C 2.484375 -7.453125 2.863281 -7.644531 3.28125 -7.78125 C 3.695312 -7.914062 4.132812 -7.984375 4.59375 -7.984375 C 4.851562 -7.984375 5.128906 -7.953125 5.421875 -7.890625 C 5.710938 -7.828125 5.992188 -7.734375 6.265625 -7.609375 C 6.546875 -7.484375 6.789062 -7.335938 7 -7.171875 C 7.070312 -7.117188 7.109375 -7.0625 7.109375 -7 C 7.117188 -6.945312 7.109375 -6.898438 7.078125 -6.859375 L 6.484375 -5.96875 C 6.460938 -5.925781 6.421875 -5.898438 6.359375 -5.890625 C 6.296875 -5.878906 6.226562 -5.90625 6.15625 -5.96875 C 5.9375 -6.15625 5.6875 -6.296875 5.40625 -6.390625 C 5.125 -6.484375 4.851562 -6.53125 4.59375 -6.53125 C 4.21875 -6.53125 3.867188 -6.460938 3.546875 -6.328125 C 3.222656 -6.203125 2.941406 -6.019531 2.703125 -5.78125 C 2.460938 -5.539062 2.269531 -5.257812 2.125 -4.9375 C 1.988281 -4.625 1.921875 -4.285156 1.921875 -3.921875 C 1.921875 -3.554688 1.988281 -3.21875 2.125 -2.90625 C 2.269531 -2.59375 2.460938 -2.316406 2.703125 -2.078125 C 2.953125 -1.847656 3.234375 -1.664062 3.546875 -1.53125 C 3.867188 -1.40625 4.21875 -1.34375 4.59375 -1.34375 C 4.84375 -1.34375 5.109375 -1.390625 5.390625 -1.484375 C 5.671875 -1.578125 5.921875 -1.710938 6.140625 -1.890625 Z M 6.140625 -1.890625 "/></g></g></g><g fill="#f7fbfa" fill-opacity="0.4"><g transform="translate(82.878741, 329.257507)"><g><path d="M 7.625 -0.25 C 7.65625 -0.175781 7.65625 -0.113281 7.625 -0.0625 C 7.59375 -0.0078125 7.535156 0.015625 7.453125 0.015625 L 6.328125 0.015625 C 6.273438 0.015625 6.222656 -0.00390625 6.171875 -0.046875 C 6.128906 -0.0859375 6.097656 -0.132812 6.078125 -0.1875 L 5.75 -0.953125 L 2.140625 -0.953125 L 1.828125 -0.203125 C 1.796875 -0.140625 1.757812 -0.0859375 1.71875 -0.046875 C 1.675781 -0.015625 1.617188 0 1.546875 0 L 0.453125 0 C 0.359375 0 0.296875 -0.0195312 0.265625 -0.0625 C 0.234375 -0.113281 0.234375 -0.179688 0.265625 -0.265625 L 3.625 -7.765625 C 3.644531 -7.828125 3.679688 -7.875 3.734375 -7.90625 C 3.796875 -7.945312 3.851562 -7.96875 3.90625 -7.96875 L 3.96875 -7.96875 C 4.03125 -7.96875 4.085938 -7.945312 4.140625 -7.90625 C 4.191406 -7.875 4.234375 -7.828125 4.265625 -7.765625 Z M 2.65625 -2.21875 L 5.234375 -2.21875 L 3.953125 -5.34375 Z M 2.65625 -2.21875 "/></g></g></g><g fill="#f7fbfa" fill-opacity="0.4"><g transform="translate(92.539156, 329.257507)"><g><path d="M 5.875 -2.328125 L 6.9375 -0.265625 C 6.976562 -0.191406 6.984375 -0.128906 6.953125 -0.078125 C 6.921875 -0.0234375 6.863281 0 6.78125 0 L 5.640625 0 C 5.597656 0 5.550781 -0.015625 5.5 -0.046875 C 5.445312 -0.0859375 5.40625 -0.132812 5.375 -0.1875 L 4.5625 -1.859375 C 4.476562 -1.835938 4.390625 -1.820312 4.296875 -1.8125 C 4.210938 -1.8125 4.125 -1.8125 4.03125 -1.8125 L 2.40625 -1.8125 L 2.40625 -0.21875 C 2.40625 -0.15625 2.378906 -0.101562 2.328125 -0.0625 C 2.285156 -0.0195312 2.234375 0 2.171875 0 L 1.171875 0 C 1.109375 0 1.050781 -0.0195312 1 -0.0625 C 0.957031 -0.101562 0.9375 -0.15625 0.9375 -0.21875 L 0.9375 -7.640625 C 0.9375 -7.710938 0.957031 -7.769531 1 -7.8125 C 1.050781 -7.851562 1.109375 -7.875 1.171875 -7.875 L 1.4375 -7.875 C 1.582031 -7.875 1.726562 -7.875 1.875 -7.875 C 2.019531 -7.875 2.125 -7.875 2.1875 -7.875 L 4.03125 -7.875 C 4.488281 -7.875 4.910156 -7.796875 5.296875 -7.640625 C 5.691406 -7.492188 6.03125 -7.28125 6.3125 -7 C 6.59375 -6.726562 6.8125 -6.40625 6.96875 -6.03125 C 7.132812 -5.664062 7.21875 -5.257812 7.21875 -4.8125 C 7.21875 -4.28125 7.097656 -3.796875 6.859375 -3.359375 C 6.617188 -2.929688 6.289062 -2.585938 5.875 -2.328125 Z M 3.9375 -3.046875 C 4.289062 -3.046875 4.601562 -3.117188 4.875 -3.265625 C 5.144531 -3.421875 5.359375 -3.632812 5.515625 -3.90625 C 5.671875 -4.175781 5.75 -4.484375 5.75 -4.828125 C 5.75 -5.085938 5.703125 -5.320312 5.609375 -5.53125 C 5.515625 -5.75 5.382812 -5.9375 5.21875 -6.09375 C 5.0625 -6.25 4.875 -6.367188 4.65625 -6.453125 C 4.4375 -6.546875 4.195312 -6.59375 3.9375 -6.59375 L 2.40625 -6.59375 L 2.40625 -3.046875 Z M 3.9375 -3.046875 "/></g></g></g><g fill="#f7fbfa" fill-opacity="0.4"><g transform="translate(102.168534, 329.257507)"><g><path d="M 6.640625 -1.390625 C 6.734375 -1.390625 6.804688 -1.363281 6.859375 -1.3125 C 6.921875 -1.257812 6.953125 -1.1875 6.953125 -1.09375 L 6.953125 -0.234375 C 6.953125 -0.160156 6.929688 -0.101562 6.890625 -0.0625 C 6.847656 -0.0195312 6.789062 0 6.71875 0 L 1.171875 0 C 1.015625 0 0.9375 -0.078125 0.9375 -0.234375 L 0.9375 -7.640625 C 0.9375 -7.796875 1.015625 -7.875 1.171875 -7.875 L 6.609375 -7.875 C 6.679688 -7.875 6.738281 -7.851562 6.78125 -7.8125 C 6.820312 -7.769531 6.84375 -7.710938 6.84375 -7.640625 L 6.84375 -6.71875 C 6.84375 -6.5625 6.765625 -6.484375 6.609375 -6.484375 L 2.40625 -6.484375 L 2.40625 -4.3125 L 5.6875 -4.3125 C 5.78125 -4.3125 5.847656 -4.289062 5.890625 -4.25 C 5.941406 -4.207031 5.96875 -4.144531 5.96875 -4.0625 L 5.96875 -3.203125 C 5.96875 -3.128906 5.941406 -3.070312 5.890625 -3.03125 C 5.847656 -2.988281 5.78125 -2.96875 5.6875 -2.96875 L 2.40625 -2.96875 L 2.40625 -1.390625 Z M 6.640625 -1.390625 "/></g></g></g><g fill="#f7fbfa" fill-opacity="0.4"><g transform="translate(111.420304, 329.257507)"><g><path d="M 6.640625 -1.390625 C 6.734375 -1.390625 6.804688 -1.363281 6.859375 -1.3125 C 6.921875 -1.257812 6.953125 -1.1875 6.953125 -1.09375 L 6.953125 -0.234375 C 6.953125 -0.160156 6.929688 -0.101562 6.890625 -0.0625 C 6.847656 -0.0195312 6.789062 0 6.71875 0 L 1.171875 0 C 1.015625 0 0.9375 -0.078125 0.9375 -0.234375 L 0.9375 -7.640625 C 0.9375 -7.796875 1.015625 -7.875 1.171875 -7.875 L 6.609375 -7.875 C 6.679688 -7.875 6.738281 -7.851562 6.78125 -7.8125 C 6.820312 -7.769531 6.84375 -7.710938 6.84375 -7.640625 L 6.84375 -6.71875 C 6.84375 -6.5625 6.765625 -6.484375 6.609375 -6.484375 L 2.40625 -6.484375 L 2.40625 -4.3125 L 5.6875 -4.3125 C 5.78125 -4.3125 5.847656 -4.289062 5.890625 -4.25 C 5.941406 -4.207031 5.96875 -4.144531 5.96875 -4.0625 L 5.96875 -3.203125 C 5.96875 -3.128906 5.941406 -3.070312 5.890625 -3.03125 C 5.847656 -2.988281 5.78125 -2.96875 5.6875 -2.96875 L 2.40625 -2.96875 L 2.40625 -1.390625 Z M 6.640625 -1.390625 "/></g></g></g><g fill="#f7fbfa" fill-opacity="0.4"><g transform="translate(120.672073, 329.257507)"><g><path d="M 5.875 -2.328125 L 6.9375 -0.265625 C 6.976562 -0.191406 6.984375 -0.128906 6.953125 -0.078125 C 6.921875 -0.0234375 6.863281 0 6.78125 0 L 5.640625 0 C 5.597656 0 5.550781 -0.015625 5.5 -0.046875 C 5.445312 -0.0859375 5.40625 -0.132812 5.375 -0.1875 L 4.5625 -1.859375 C 4.476562 -1.835938 4.390625 -1.820312 4.296875 -1.8125 C 4.210938 -1.8125 4.125 -1.8125 4.03125 -1.8125 L 2.40625 -1.8125 L 2.40625 -0.21875 C 2.40625 -0.15625 2.378906 -0.101562 2.328125 -0.0625 C 2.285156 -0.0195312 2.234375 0 2.171875 0 L 1.171875 0 C 1.109375 0 1.050781 -0.0195312 1 -0.0625 C 0.957031 -0.101562 0.9375 -0.15625 0.9375 -0.21875 L 0.9375 -7.640625 C 0.9375 -7.710938 0.957031 -7.769531 1 -7.8125 C 1.050781 -7.851562 1.109375 -7.875 1.171875 -7.875 L 1.4375 -7.875 C 1.582031 -7.875 1.726562 -7.875 1.875 -7.875 C 2.019531 -7.875 2.125 -7.875 2.1875 -7.875 L 4.03125 -7.875 C 4.488281 -7.875 4.910156 -7.796875 5.296875 -7.640625 C 5.691406 -7.492188 6.03125 -7.28125 6.3125 -7 C 6.59375 -6.726562 6.8125 -6.40625 6.96875 -6.03125 C 7.132812 -5.664062 7.21875 -5.257812 7.21875 -4.8125 C 7.21875 -4.28125 7.097656 -3.796875 6.859375 -3.359375 C 6.617188 -2.929688 6.289062 -2.585938 5.875 -2.328125 Z M 3.9375 -3.046875 C 4.289062 -3.046875 4.601562 -3.117188 4.875 -3.265625 C 5.144531 -3.421875 5.359375 -3.632812 5.515625 -3.90625 C 5.671875 -4.175781 5.75 -4.484375 5.75 -4.828125 C 5.75 -5.085938 5.703125 -5.320312 5.609375 -5.53125 C 5.515625 -5.75 5.382812 -5.9375 5.21875 -6.09375 C 5.0625 -6.25 4.875 -6.367188 4.65625 -6.453125 C 4.4375 -6.546875 4.195312 -6.59375 3.9375 -6.59375 L 2.40625 -6.59375 L 2.40625 -3.046875 Z M 3.9375 -3.046875 "/></g></g></g><g fill="#f7fbfa" fill-opacity="0.4"><g transform="translate(130.301452, 329.257507)"><g/></g></g><g fill="#f7fbfa" fill-opacity="0.4"><g transform="translate(135.415038, 329.257507)"><g><path d="M 0.9375 -0.234375 L 0.9375 -7.640625 C 0.9375 -7.710938 0.957031 -7.769531 1 -7.8125 C 1.050781 -7.851562 1.109375 -7.875 1.171875 -7.875 L 4.0625 -7.875 C 4.53125 -7.875 4.96875 -7.804688 5.375 -7.671875 C 5.78125 -7.546875 6.144531 -7.367188 6.46875 -7.140625 C 6.800781 -6.910156 7.082031 -6.628906 7.3125 -6.296875 C 7.550781 -5.972656 7.734375 -5.609375 7.859375 -5.203125 C 7.992188 -4.804688 8.0625 -4.382812 8.0625 -3.9375 C 8.0625 -3.476562 7.992188 -3.050781 7.859375 -2.65625 C 7.734375 -2.257812 7.550781 -1.894531 7.3125 -1.5625 C 7.082031 -1.238281 6.800781 -0.957031 6.46875 -0.71875 C 6.132812 -0.488281 5.765625 -0.3125 5.359375 -0.1875 C 4.953125 -0.0625 4.515625 0 4.046875 0 L 1.171875 0 C 1.109375 0 1.050781 -0.0195312 1 -0.0625 C 0.957031 -0.101562 0.9375 -0.160156 0.9375 -0.234375 Z M 2.40625 -1.390625 L 4.046875 -1.390625 C 4.410156 -1.390625 4.75 -1.453125 5.0625 -1.578125 C 5.375 -1.710938 5.644531 -1.894531 5.875 -2.125 C 6.101562 -2.363281 6.28125 -2.632812 6.40625 -2.9375 C 6.53125 -3.25 6.59375 -3.582031 6.59375 -3.9375 C 6.59375 -4.289062 6.53125 -4.625 6.40625 -4.9375 C 6.28125 -5.25 6.101562 -5.519531 5.875 -5.75 C 5.644531 -5.988281 5.375 -6.171875 5.0625 -6.296875 C 4.757812 -6.429688 4.425781 -6.5 4.0625 -6.5 L 2.40625 -6.5 Z M 2.40625 -1.390625 "/></g></g></g><g fill="#f7fbfa" fill-opacity="0.4"><g transform="translate(145.706526, 329.257507)"><g><path d="M 6.640625 -1.390625 C 6.734375 -1.390625 6.804688 -1.363281 6.859375 -1.3125 C 6.921875 -1.257812 6.953125 -1.1875 6.953125 -1.09375 L 6.953125 -0.234375 C 6.953125 -0.160156 6.929688 -0.101562 6.890625 -0.0625 C 6.847656 -0.0195312 6.789062 0 6.71875 0 L 1.171875 0 C 1.015625 0 0.9375 -0.078125 0.9375 -0.234375 L 0.9375 -7.640625 C 0.9375 -7.796875 1.015625 -7.875 1.171875 -7.875 L 6.609375 -7.875 C 6.679688 -7.875 6.738281 -7.851562 6.78125 -7.8125 C 6.820312 -7.769531 6.84375 -7.710938 6.84375 -7.640625 L 6.84375 -6.71875 C 6.84375 -6.5625 6.765625 -6.484375 6.609375 -6.484375 L 2.40625 -6.484375 L 2.40625 -4.3125 L 5.6875 -4.3125 C 5.78125 -4.3125 5.847656 -4.289062 5.890625 -4.25 C 5.941406 -4.207031 5.96875 -4.144531 5.96875 -4.0625 L 5.96875 -3.203125 C 5.96875 -3.128906 5.941406 -3.070312 5.890625 -3.03125 C 5.847656 -2.988281 5.78125 -2.96875 5.6875 -2.96875 L 2.40625 -2.96875 L 2.40625 -1.390625 Z M 6.640625 -1.390625 "/></g></g></g><g fill="#f7fbfa" fill-opacity="0.4"><g transform="translate(154.958295, 329.257507)"><g><path d="M 7.5 -7.875 C 7.582031 -7.875 7.640625 -7.847656 7.671875 -7.796875 C 7.703125 -7.742188 7.695312 -7.679688 7.65625 -7.609375 L 4.28125 -0.125 C 4.207031 0.0390625 4.109375 0.125 3.984375 0.125 L 3.953125 0.125 C 3.816406 0.125 3.710938 0.0390625 3.640625 -0.125 L 0.28125 -7.609375 C 0.238281 -7.679688 0.234375 -7.742188 0.265625 -7.796875 C 0.304688 -7.847656 0.367188 -7.875 0.453125 -7.875 L 1.546875 -7.875 C 1.617188 -7.875 1.675781 -7.851562 1.71875 -7.8125 C 1.769531 -7.769531 1.804688 -7.722656 1.828125 -7.671875 L 3.96875 -2.703125 L 6.109375 -7.671875 C 6.140625 -7.734375 6.175781 -7.78125 6.21875 -7.8125 C 6.257812 -7.851562 6.3125 -7.875 6.375 -7.875 Z M 7.5 -7.875 "/></g></g></g><g fill="#f7fbfa" fill-opacity="0.4"><g transform="translate(164.665265, 329.257507)"><g><path d="M 6.640625 -1.390625 C 6.734375 -1.390625 6.804688 -1.363281 6.859375 -1.3125 C 6.921875 -1.257812 6.953125 -1.1875 6.953125 -1.09375 L 6.953125 -0.234375 C 6.953125 -0.160156 6.929688 -0.101562 6.890625 -0.0625 C 6.847656 -0.0195312 6.789062 0 6.71875 0 L 1.171875 0 C 1.015625 0 0.9375 -0.078125 0.9375 -0.234375 L 0.9375 -7.640625 C 0.9375 -7.796875 1.015625 -7.875 1.171875 -7.875 L 6.609375 -7.875 C 6.679688 -7.875 6.738281 -7.851562 6.78125 -7.8125 C 6.820312 -7.769531 6.84375 -7.710938 6.84375 -7.640625 L 6.84375 -6.71875 C 6.84375 -6.5625 6.765625 -6.484375 6.609375 -6.484375 L 2.40625 -6.484375 L 2.40625 -4.3125 L 5.6875 -4.3125 C 5.78125 -4.3125 5.847656 -4.289062 5.890625 -4.25 C 5.941406 -4.207031 5.96875 -4.144531 5.96875 -4.0625 L 5.96875 -3.203125 C 5.96875 -3.128906 5.941406 -3.070312 5.890625 -3.03125 C 5.847656 -2.988281 5.78125 -2.96875 5.6875 -2.96875 L 2.40625 -2.96875 L 2.40625 -1.390625 Z M 6.640625 -1.390625 "/></g></g></g><g fill="#f7fbfa" fill-opacity="0.4"><g transform="translate(173.917034, 329.257507)"><g><path d="M 5.953125 -1.28125 C 6.066406 -1.28125 6.125 -1.222656 6.125 -1.109375 L 6.125 -0.171875 C 6.125 -0.0546875 6.066406 0 5.953125 0 L 1.109375 0 C 0.992188 0 0.9375 -0.0546875 0.9375 -0.171875 L 0.9375 -7.703125 C 0.9375 -7.816406 0.992188 -7.875 1.109375 -7.875 L 2.234375 -7.875 C 2.347656 -7.875 2.40625 -7.816406 2.40625 -7.703125 L 2.40625 -1.28125 Z M 5.953125 -1.28125 "/></g></g></g><g fill="#f7fbfa" fill-opacity="0.4"><g transform="translate(182.020458, 329.257507)"><g><path d="M 0.46875 -3.921875 C 0.46875 -4.378906 0.535156 -4.8125 0.671875 -5.21875 C 0.804688 -5.625 0.992188 -5.992188 1.234375 -6.328125 C 1.484375 -6.671875 1.773438 -6.960938 2.109375 -7.203125 C 2.453125 -7.453125 2.828125 -7.644531 3.234375 -7.78125 C 3.648438 -7.914062 4.085938 -7.984375 4.546875 -7.984375 C 5.003906 -7.984375 5.4375 -7.914062 5.84375 -7.78125 C 6.257812 -7.644531 6.632812 -7.453125 6.96875 -7.203125 C 7.3125 -6.960938 7.601562 -6.671875 7.84375 -6.328125 C 8.09375 -5.992188 8.285156 -5.625 8.421875 -5.21875 C 8.554688 -4.8125 8.625 -4.378906 8.625 -3.921875 C 8.625 -3.460938 8.554688 -3.03125 8.421875 -2.625 C 8.285156 -2.21875 8.09375 -1.847656 7.84375 -1.515625 C 7.601562 -1.179688 7.3125 -0.890625 6.96875 -0.640625 C 6.632812 -0.398438 6.257812 -0.210938 5.84375 -0.078125 C 5.4375 0.0546875 5.003906 0.125 4.546875 0.125 C 4.085938 0.125 3.648438 0.0546875 3.234375 -0.078125 C 2.828125 -0.210938 2.453125 -0.398438 2.109375 -0.640625 C 1.773438 -0.890625 1.484375 -1.179688 1.234375 -1.515625 C 0.992188 -1.847656 0.804688 -2.21875 0.671875 -2.625 C 0.535156 -3.03125 0.46875 -3.460938 0.46875 -3.921875 Z M 1.921875 -3.921875 C 1.921875 -3.554688 1.988281 -3.21875 2.125 -2.90625 C 2.257812 -2.59375 2.445312 -2.316406 2.6875 -2.078125 C 2.925781 -1.847656 3.203125 -1.664062 3.515625 -1.53125 C 3.835938 -1.40625 4.179688 -1.34375 4.546875 -1.34375 C 4.921875 -1.34375 5.265625 -1.40625 5.578125 -1.53125 C 5.890625 -1.664062 6.164062 -1.847656 6.40625 -2.078125 C 6.644531 -2.316406 6.832031 -2.59375 6.96875 -2.90625 C 7.101562 -3.21875 7.171875 -3.554688 7.171875 -3.921875 C 7.171875 -4.285156 7.101562 -4.625 6.96875 -4.9375 C 6.832031 -5.257812 6.644531 -5.539062 6.40625 -5.78125 C 6.164062 -6.019531 5.882812 -6.203125 5.5625 -6.328125 C 5.25 -6.460938 4.910156 -6.53125 4.546875 -6.53125 C 4.179688 -6.53125 3.835938 -6.460938 3.515625 -6.328125 C 3.203125 -6.203125 2.925781 -6.019531 2.6875 -5.78125 C 2.445312 -5.539062 2.257812 -5.257812 2.125 -4.9375 C 1.988281 -4.625 1.921875 -4.285156 1.921875 -3.921875 Z M 1.921875 -3.921875 "/></g></g></g><g fill="#f7fbfa" fill-opacity="0.4"><g transform="translate(192.886119, 329.257507)"><g><path d="M 3.4375 -7.875 C 3.945312 -7.875 4.410156 -7.796875 4.828125 -7.640625 C 5.242188 -7.484375 5.609375 -7.265625 5.921875 -6.984375 C 6.234375 -6.703125 6.472656 -6.367188 6.640625 -5.984375 C 6.816406 -5.609375 6.90625 -5.195312 6.90625 -4.75 C 6.90625 -4.300781 6.816406 -3.882812 6.640625 -3.5 C 6.472656 -3.125 6.234375 -2.796875 5.921875 -2.515625 C 5.609375 -2.242188 5.242188 -2.03125 4.828125 -1.875 C 4.410156 -1.726562 3.945312 -1.65625 3.4375 -1.65625 L 2.40625 -1.65625 L 2.40625 -0.21875 C 2.40625 -0.15625 2.382812 -0.101562 2.34375 -0.0625 C 2.300781 -0.0195312 2.242188 0 2.171875 0 L 1.171875 0 C 1.097656 0 1.039062 -0.0195312 1 -0.0625 C 0.957031 -0.101562 0.9375 -0.15625 0.9375 -0.21875 L 0.9375 -7.640625 C 0.9375 -7.710938 0.957031 -7.769531 1 -7.8125 C 1.039062 -7.851562 1.097656 -7.875 1.171875 -7.875 L 1.703125 -7.875 C 1.804688 -7.875 1.898438 -7.875 1.984375 -7.875 C 2.078125 -7.875 2.144531 -7.875 2.1875 -7.875 Z M 3.34375 -2.953125 C 3.644531 -2.953125 3.921875 -2.992188 4.171875 -3.078125 C 4.429688 -3.160156 4.65625 -3.28125 4.84375 -3.4375 C 5.039062 -3.601562 5.1875 -3.796875 5.28125 -4.015625 C 5.382812 -4.242188 5.4375 -4.492188 5.4375 -4.765625 C 5.4375 -5.023438 5.382812 -5.265625 5.28125 -5.484375 C 5.1875 -5.710938 5.039062 -5.90625 4.84375 -6.0625 C 4.65625 -6.226562 4.429688 -6.351562 4.171875 -6.4375 C 3.921875 -6.53125 3.644531 -6.578125 3.34375 -6.578125 L 2.40625 -6.578125 L 2.40625 -2.953125 Z M 3.34375 -2.953125 "/></g></g></g><g fill="#f7fbfa" fill-opacity="0.4"><g transform="translate(202.00857, 329.257507)"><g><path d="M 9.375 -0.234375 C 9.375 -0.148438 9.351562 -0.0859375 9.3125 -0.046875 C 9.269531 -0.015625 9.210938 0 9.140625 0 L 8.140625 0 C 8.066406 0 8.007812 -0.015625 7.96875 -0.046875 C 7.925781 -0.078125 7.90625 -0.132812 7.90625 -0.21875 L 7.53125 -4.0625 L 5.1875 -0.09375 C 5.144531 -0.0195312 5.109375 0.03125 5.078125 0.0625 C 5.046875 0.09375 5 0.109375 4.9375 0.109375 C 4.863281 0.109375 4.8125 0.09375 4.78125 0.0625 C 4.757812 0.03125 4.722656 -0.0195312 4.671875 -0.09375 L 2.34375 -4.0625 L 1.96875 -0.21875 C 1.957031 -0.132812 1.929688 -0.078125 1.890625 -0.046875 C 1.847656 -0.015625 1.789062 0 1.71875 0 L 0.71875 0 C 0.644531 0 0.585938 -0.015625 0.546875 -0.046875 C 0.503906 -0.0859375 0.484375 -0.148438 0.484375 -0.234375 L 1.25 -7.796875 C 1.257812 -7.921875 1.328125 -7.984375 1.453125 -7.984375 L 1.46875 -7.984375 C 1.539062 -7.984375 1.585938 -7.96875 1.609375 -7.9375 C 1.628906 -7.90625 1.660156 -7.863281 1.703125 -7.8125 L 4.9375 -2.328125 L 8.171875 -7.8125 C 8.203125 -7.863281 8.226562 -7.90625 8.25 -7.9375 C 8.269531 -7.96875 8.316406 -7.984375 8.390625 -7.984375 L 8.40625 -7.984375 C 8.519531 -7.984375 8.585938 -7.921875 8.609375 -7.796875 Z M 9.375 -0.234375 "/></g></g></g><g fill="#f7fbfa" fill-opacity="0.4"><g transform="translate(213.634622, 329.257507)"><g><path d="M 6.640625 -1.390625 C 6.734375 -1.390625 6.804688 -1.363281 6.859375 -1.3125 C 6.921875 -1.257812 6.953125 -1.1875 6.953125 -1.09375 L 6.953125 -0.234375 C 6.953125 -0.160156 6.929688 -0.101562 6.890625 -0.0625 C 6.847656 -0.0195312 6.789062 0 6.71875 0 L 1.171875 0 C 1.015625 0 0.9375 -0.078125 0.9375 -0.234375 L 0.9375 -7.640625 C 0.9375 -7.796875 1.015625 -7.875 1.171875 -7.875 L 6.609375 -7.875 C 6.679688 -7.875 6.738281 -7.851562 6.78125 -7.8125 C 6.820312 -7.769531 6.84375 -7.710938 6.84375 -7.640625 L 6.84375 -6.71875 C 6.84375 -6.5625 6.765625 -6.484375 6.609375 -6.484375 L 2.40625 -6.484375 L 2.40625 -4.3125 L 5.6875 -4.3125 C 5.78125 -4.3125 5.847656 -4.289062 5.890625 -4.25 C 5.941406 -4.207031 5.96875 -4.144531 5.96875 -4.0625 L 5.96875 -3.203125 C 5.96875 -3.128906 5.941406 -3.070312 5.890625 -3.03125 C 5.847656 -2.988281 5.78125 -2.96875 5.6875 -2.96875 L 2.40625 -2.96875 L 2.40625 -1.390625 Z M 6.640625 -1.390625 "/></g></g></g><g fill="#f7fbfa" fill-opacity="0.4"><g transform="translate(222.886391, 329.257507)"><g><path d="M 7.765625 -7.875 C 7.890625 -7.875 7.953125 -7.816406 7.953125 -7.703125 L 7.953125 -0.140625 C 7.953125 -0.0664062 7.929688 -0.0078125 7.890625 0.03125 C 7.847656 0.0820312 7.800781 0.109375 7.75 0.109375 L 7.734375 0.109375 C 7.671875 0.109375 7.613281 0.0859375 7.5625 0.046875 C 7.519531 0.00390625 7.46875 -0.0351562 7.40625 -0.078125 L 2.40625 -4.84375 L 2.40625 -0.171875 C 2.40625 -0.0546875 2.347656 0 2.234375 0 L 1.109375 0 C 0.992188 0 0.9375 -0.0546875 0.9375 -0.171875 L 0.9375 -7.75 C 0.9375 -7.8125 0.953125 -7.863281 0.984375 -7.90625 C 1.023438 -7.945312 1.070312 -7.96875 1.125 -7.96875 L 1.15625 -7.96875 C 1.207031 -7.96875 1.253906 -7.945312 1.296875 -7.90625 C 1.335938 -7.875 1.382812 -7.832031 1.4375 -7.78125 L 6.484375 -3.015625 L 6.484375 -7.703125 C 6.484375 -7.816406 6.539062 -7.875 6.65625 -7.875 Z M 7.765625 -7.875 "/></g></g></g><g fill="#f7fbfa" fill-opacity="0.4"><g transform="translate(233.53997, 329.257507)"><g><path d="M 0.3125 -6.828125 L 0.3125 -7.640625 C 0.3125 -7.796875 0.382812 -7.875 0.53125 -7.875 L 5.921875 -7.875 C 5.992188 -7.875 6.050781 -7.851562 6.09375 -7.8125 C 6.132812 -7.769531 6.15625 -7.710938 6.15625 -7.640625 L 6.15625 -6.828125 C 6.15625 -6.671875 6.078125 -6.59375 5.921875 -6.59375 L 3.953125 -6.59375 L 3.953125 -0.21875 C 3.953125 -0.0703125 3.875 0 3.71875 0 L 2.71875 0 C 2.5625 0 2.484375 -0.0703125 2.484375 -0.21875 L 2.484375 -6.59375 L 0.53125 -6.59375 C 0.46875 -6.59375 0.414062 -6.609375 0.375 -6.640625 C 0.332031 -6.679688 0.3125 -6.742188 0.3125 -6.828125 Z M 0.3125 -6.828125 "/></g></g></g><g fill="#f7fbfa" fill-opacity="0.4"><g transform="translate(241.767539, 329.257507)"><g/></g></g><g fill="#f7fbfa" fill-opacity="0.4"><g transform="translate(246.881125, 329.257507)"><g><path d="M 6.140625 -1.890625 C 6.203125 -1.941406 6.265625 -1.960938 6.328125 -1.953125 C 6.398438 -1.953125 6.453125 -1.925781 6.484375 -1.875 L 7.078125 -0.984375 C 7.109375 -0.941406 7.113281 -0.890625 7.09375 -0.828125 C 7.070312 -0.773438 7.03125 -0.726562 6.96875 -0.6875 C 6.757812 -0.519531 6.519531 -0.375 6.25 -0.25 C 5.988281 -0.132812 5.710938 -0.046875 5.421875 0.015625 C 5.140625 0.0859375 4.863281 0.125 4.59375 0.125 C 4.132812 0.125 3.695312 0.0546875 3.28125 -0.078125 C 2.863281 -0.210938 2.484375 -0.398438 2.140625 -0.640625 C 1.796875 -0.890625 1.5 -1.179688 1.25 -1.515625 C 1 -1.847656 0.804688 -2.21875 0.671875 -2.625 C 0.535156 -3.039062 0.46875 -3.472656 0.46875 -3.921875 C 0.46875 -4.378906 0.535156 -4.8125 0.671875 -5.21875 C 0.804688 -5.625 1 -5.992188 1.25 -6.328125 C 1.5 -6.671875 1.796875 -6.960938 2.140625 -7.203125 C 2.484375 -7.453125 2.863281 -7.644531 3.28125 -7.78125 C 3.695312 -7.914062 4.132812 -7.984375 4.59375 -7.984375 C 4.851562 -7.984375 5.128906 -7.953125 5.421875 -7.890625 C 5.710938 -7.828125 5.992188 -7.734375 6.265625 -7.609375 C 6.546875 -7.484375 6.789062 -7.335938 7 -7.171875 C 7.070312 -7.117188 7.109375 -7.0625 7.109375 -7 C 7.117188 -6.945312 7.109375 -6.898438 7.078125 -6.859375 L 6.484375 -5.96875 C 6.460938 -5.925781 6.421875 -5.898438 6.359375 -5.890625 C 6.296875 -5.878906 6.226562 -5.90625 6.15625 -5.96875 C 5.9375 -6.15625 5.6875 -6.296875 5.40625 -6.390625 C 5.125 -6.484375 4.851562 -6.53125 4.59375 -6.53125 C 4.21875 -6.53125 3.867188 -6.460938 3.546875 -6.328125 C 3.222656 -6.203125 2.941406 -6.019531 2.703125 -5.78125 C 2.460938 -5.539062 2.269531 -5.257812 2.125 -4.9375 C 1.988281 -4.625 1.921875 -4.285156 1.921875 -3.921875 C 1.921875 -3.554688 1.988281 -3.21875 2.125 -2.90625 C 2.269531 -2.59375 2.460938 -2.316406 2.703125 -2.078125 C 2.953125 -1.847656 3.234375 -1.664062 3.546875 -1.53125 C 3.867188 -1.40625 4.21875 -1.34375 4.59375 -1.34375 C 4.84375 -1.34375 5.109375 -1.390625 5.390625 -1.484375 C 5.671875 -1.578125 5.921875 -1.710938 6.140625 -1.890625 Z M 6.140625 -1.890625 "/></g></g></g><g fill="#f7fbfa" fill-opacity="0.4"><g transform="translate(256.282904, 329.257507)"><g><path d="M 6.640625 -1.390625 C 6.734375 -1.390625 6.804688 -1.363281 6.859375 -1.3125 C 6.921875 -1.257812 6.953125 -1.1875 6.953125 -1.09375 L 6.953125 -0.234375 C 6.953125 -0.160156 6.929688 -0.101562 6.890625 -0.0625 C 6.847656 -0.0195312 6.789062 0 6.71875 0 L 1.171875 0 C 1.015625 0 0.9375 -0.078125 0.9375 -0.234375 L 0.9375 -7.640625 C 0.9375 -7.796875 1.015625 -7.875 1.171875 -7.875 L 6.609375 -7.875 C 6.679688 -7.875 6.738281 -7.851562 6.78125 -7.8125 C 6.820312 -7.769531 6.84375 -7.710938 6.84375 -7.640625 L 6.84375 -6.71875 C 6.84375 -6.5625 6.765625 -6.484375 6.609375 -6.484375 L 2.40625 -6.484375 L 2.40625 -4.3125 L 5.6875 -4.3125 C 5.78125 -4.3125 5.847656 -4.289062 5.890625 -4.25 C 5.941406 -4.207031 5.96875 -4.144531 5.96875 -4.0625 L 5.96875 -3.203125 C 5.96875 -3.128906 5.941406 -3.070312 5.890625 -3.03125 C 5.847656 -2.988281 5.78125 -2.96875 5.6875 -2.96875 L 2.40625 -2.96875 L 2.40625 -1.390625 Z M 6.640625 -1.390625 "/></g></g></g><g fill="#f7fbfa" fill-opacity="0.4"><g transform="translate(265.534674, 329.257507)"><g><path d="M 7.765625 -7.875 C 7.890625 -7.875 7.953125 -7.816406 7.953125 -7.703125 L 7.953125 -0.140625 C 7.953125 -0.0664062 7.929688 -0.0078125 7.890625 0.03125 C 7.847656 0.0820312 7.800781 0.109375 7.75 0.109375 L 7.734375 0.109375 C 7.671875 0.109375 7.613281 0.0859375 7.5625 0.046875 C 7.519531 0.00390625 7.46875 -0.0351562 7.40625 -0.078125 L 2.40625 -4.84375 L 2.40625 -0.171875 C 2.40625 -0.0546875 2.347656 0 2.234375 0 L 1.109375 0 C 0.992188 0 0.9375 -0.0546875 0.9375 -0.171875 L 0.9375 -7.75 C 0.9375 -7.8125 0.953125 -7.863281 0.984375 -7.90625 C 1.023438 -7.945312 1.070312 -7.96875 1.125 -7.96875 L 1.15625 -7.96875 C 1.207031 -7.96875 1.253906 -7.945312 1.296875 -7.90625 C 1.335938 -7.875 1.382812 -7.832031 1.4375 -7.78125 L 6.484375 -3.015625 L 6.484375 -7.703125 C 6.484375 -7.816406 6.539062 -7.875 6.65625 -7.875 Z M 7.765625 -7.875 "/></g></g></g><g fill="#f7fbfa" fill-opacity="0.4"><g transform="translate(276.188252, 329.257507)"><g><path d="M 0.3125 -6.828125 L 0.3125 -7.640625 C 0.3125 -7.796875 0.382812 -7.875 0.53125 -7.875 L 5.921875 -7.875 C 5.992188 -7.875 6.050781 -7.851562 6.09375 -7.8125 C 6.132812 -7.769531 6.15625 -7.710938 6.15625 -7.640625 L 6.15625 -6.828125 C 6.15625 -6.671875 6.078125 -6.59375 5.921875 -6.59375 L 3.953125 -6.59375 L 3.953125 -0.21875 C 3.953125 -0.0703125 3.875 0 3.71875 0 L 2.71875 0 C 2.5625 0 2.484375 -0.0703125 2.484375 -0.21875 L 2.484375 -6.59375 L 0.53125 -6.59375 C 0.46875 -6.59375 0.414062 -6.609375 0.375 -6.640625 C 0.332031 -6.679688 0.3125 -6.742188 0.3125 -6.828125 Z M 0.3125 -6.828125 "/></g></g></g><g fill="#f7fbfa" fill-opacity="0.4"><g transform="translate(284.415822, 329.257507)"><g><path d="M 6.640625 -1.390625 C 6.734375 -1.390625 6.804688 -1.363281 6.859375 -1.3125 C 6.921875 -1.257812 6.953125 -1.1875 6.953125 -1.09375 L 6.953125 -0.234375 C 6.953125 -0.160156 6.929688 -0.101562 6.890625 -0.0625 C 6.847656 -0.0195312 6.789062 0 6.71875 0 L 1.171875 0 C 1.015625 0 0.9375 -0.078125 0.9375 -0.234375 L 0.9375 -7.640625 C 0.9375 -7.796875 1.015625 -7.875 1.171875 -7.875 L 6.609375 -7.875 C 6.679688 -7.875 6.738281 -7.851562 6.78125 -7.8125 C 6.820312 -7.769531 6.84375 -7.710938 6.84375 -7.640625 L 6.84375 -6.71875 C 6.84375 -6.5625 6.765625 -6.484375 6.609375 -6.484375 L 2.40625 -6.484375 L 2.40625 -4.3125 L 5.6875 -4.3125 C 5.78125 -4.3125 5.847656 -4.289062 5.890625 -4.25 C 5.941406 -4.207031 5.96875 -4.144531 5.96875 -4.0625 L 5.96875 -3.203125 C 5.96875 -3.128906 5.941406 -3.070312 5.890625 -3.03125 C 5.847656 -2.988281 5.78125 -2.96875 5.6875 -2.96875 L 2.40625 -2.96875 L 2.40625 -1.390625 Z M 6.640625 -1.390625 "/></g></g></g><g fill="#f7fbfa" fill-opacity="0.4"><g transform="translate(293.667591, 329.257507)"><g><path d="M 5.875 -2.328125 L 6.9375 -0.265625 C 6.976562 -0.191406 6.984375 -0.128906 6.953125 -0.078125 C 6.921875 -0.0234375 6.863281 0 6.78125 0 L 5.640625 0 C 5.597656 0 5.550781 -0.015625 5.5 -0.046875 C 5.445312 -0.0859375 5.40625 -0.132812 5.375 -0.1875 L 4.5625 -1.859375 C 4.476562 -1.835938 4.390625 -1.820312 4.296875 -1.8125 C 4.210938 -1.8125 4.125 -1.8125 4.03125 -1.8125 L 2.40625 -1.8125 L 2.40625 -0.21875 C 2.40625 -0.15625 2.378906 -0.101562 2.328125 -0.0625 C 2.285156 -0.0195312 2.234375 0 2.171875 0 L 1.171875 0 C 1.109375 0 1.050781 -0.0195312 1 -0.0625 C 0.957031 -0.101562 0.9375 -0.15625 0.9375 -0.21875 L 0.9375 -7.640625 C 0.9375 -7.710938 0.957031 -7.769531 1 -7.8125 C 1.050781 -7.851562 1.109375 -7.875 1.171875 -7.875 L 1.4375 -7.875 C 1.582031 -7.875 1.726562 -7.875 1.875 -7.875 C 2.019531 -7.875 2.125 -7.875 2.1875 -7.875 L 4.03125 -7.875 C 4.488281 -7.875 4.910156 -7.796875 5.296875 -7.640625 C 5.691406 -7.492188 6.03125 -7.28125 6.3125 -7 C 6.59375 -6.726562 6.8125 -6.40625 6.96875 -6.03125 C 7.132812 -5.664062 7.21875 -5.257812 7.21875 -4.8125 C 7.21875 -4.28125 7.097656 -3.796875 6.859375 -3.359375 C 6.617188 -2.929688 6.289062 -2.585938 5.875 -2.328125 Z M 3.9375 -3.046875 C 4.289062 -3.046875 4.601562 -3.117188 4.875 -3.265625 C 5.144531 -3.421875 5.359375 -3.632812 5.515625 -3.90625 C 5.671875 -4.175781 5.75 -4.484375 5.75 -4.828125 C 5.75 -5.085938 5.703125 -5.320312 5.609375 -5.53125 C 5.515625 -5.75 5.382812 -5.9375 5.21875 -6.09375 C 5.0625 -6.25 4.875 -6.367188 4.65625 -6.453125 C 4.4375 -6.546875 4.195312 -6.59375 3.9375 -6.59375 L 2.40625 -6.59375 L 2.40625 -3.046875 Z M 3.9375 -3.046875 "/></g></g></g><g fill="#f7fbfa" fill-opacity="1"><g transform="translate(73.476962, 329.257507)"><g><path d="M 6.140625 -1.890625 C 6.203125 -1.941406 6.265625 -1.960938 6.328125 -1.953125 C 6.398438 -1.953125 6.453125 -1.925781 6.484375 -1.875 L 7.078125 -0.984375 C 7.109375 -0.941406 7.113281 -0.890625 7.09375 -0.828125 C 7.070312 -0.773438 7.03125 -0.726562 6.96875 -0.6875 C 6.757812 -0.519531 6.519531 -0.375 6.25 -0.25 C 5.988281 -0.132812 5.710938 -0.046875 5.421875 0.015625 C 5.140625 0.0859375 4.863281 0.125 4.59375 0.125 C 4.132812 0.125 3.695312 0.0546875 3.28125 -0.078125 C 2.863281 -0.210938 2.484375 -0.398438 2.140625 -0.640625 C 1.796875 -0.890625 1.5 -1.179688 1.25 -1.515625 C 1 -1.847656 0.804688 -2.21875 0.671875 -2.625 C 0.535156 -3.039062 0.46875 -3.472656 0.46875 -3.921875 C 0.46875 -4.378906 0.535156 -4.8125 0.671875 -5.21875 C 0.804688 -5.625 1 -5.992188 1.25 -6.328125 C 1.5 -6.671875 1.796875 -6.960938 2.140625 -7.203125 C 2.484375 -7.453125 2.863281 -7.644531 3.28125 -7.78125 C 3.695312 -7.914062 4.132812 -7.984375 4.59375 -7.984375 C 4.851562 -7.984375 5.128906 -7.953125 5.421875 -7.890625 C 5.710938 -7.828125 5.992188 -7.734375 6.265625 -7.609375 C 6.546875 -7.484375 6.789062 -7.335938 7 -7.171875 C 7.070312 -7.117188 7.109375 -7.0625 7.109375 -7 C 7.117188 -6.945312 7.109375 -6.898438 7.078125 -6.859375 L 6.484375 -5.96875 C 6.460938 -5.925781 6.421875 -5.898438 6.359375 -5.890625 C 6.296875 -5.878906 6.226562 -5.90625 6.15625 -5.96875 C 5.9375 -6.15625 5.6875 -6.296875 5.40625 -6.390625 C 5.125 -6.484375 4.851562 -6.53125 4.59375 -6.53125 C 4.21875 -6.53125 3.867188 -6.460938 3.546875 -6.328125 C 3.222656 -6.203125 2.941406 -6.019531 2.703125 -5.78125 C 2.460938 -5.539062 2.269531 -5.257812 2.125 -4.9375 C 1.988281 -4.625 1.921875 -4.285156 1.921875 -3.921875 C 1.921875 -3.554688 1.988281 -3.21875 2.125 -2.90625 C 2.269531 -2.59375 2.460938 -2.316406 2.703125 -2.078125 C 2.953125 -1.847656 3.234375 -1.664062 3.546875 -1.53125 C 3.867188 -1.40625 4.21875 -1.34375 4.59375 -1.34375 C 4.84375 -1.34375 5.109375 -1.390625 5.390625 -1.484375 C 5.671875 -1.578125 5.921875 -1.710938 6.140625 -1.890625 Z M 6.140625 -1.890625 "/></g></g></g><g fill="#f7fbfa" fill-opacity="1"><g transform="translate(82.878741, 329.257507)"><g><path d="M 7.625 -0.25 C 7.65625 -0.175781 7.65625 -0.113281 7.625 -0.0625 C 7.59375 -0.0078125 7.535156 0.015625 7.453125 0.015625 L 6.328125 0.015625 C 6.273438 0.015625 6.222656 -0.00390625 6.171875 -0.046875 C 6.128906 -0.0859375 6.097656 -0.132812 6.078125 -0.1875 L 5.75 -0.953125 L 2.140625 -0.953125 L 1.828125 -0.203125 C 1.796875 -0.140625 1.757812 -0.0859375 1.71875 -0.046875 C 1.675781 -0.015625 1.617188 0 1.546875 0 L 0.453125 0 C 0.359375 0 0.296875 -0.0195312 0.265625 -0.0625 C 0.234375 -0.113281 0.234375 -0.179688 0.265625 -0.265625 L 3.625 -7.765625 C 3.644531 -7.828125 3.679688 -7.875 3.734375 -7.90625 C 3.796875 -7.945312 3.851562 -7.96875 3.90625 -7.96875 L 3.96875 -7.96875 C 4.03125 -7.96875 4.085938 -7.945312 4.140625 -7.90625 C 4.191406 -7.875 4.234375 -7.828125 4.265625 -7.765625 Z M 2.65625 -2.21875 L 5.234375 -2.21875 L 3.953125 -5.34375 Z M 2.65625 -2.21875 "/></g></g></g><g fill="#f7fbfa" fill-opacity="1"><g transform="translate(92.539156, 329.257507)"><g><path d="M 5.875 -2.328125 L 6.9375 -0.265625 C 6.976562 -0.191406 6.984375 -0.128906 6.953125 -0.078125 C 6.921875 -0.0234375 6.863281 0 6.78125 0 L 5.640625 0 C 5.597656 0 5.550781 -0.015625 5.5 -0.046875 C 5.445312 -0.0859375 5.40625 -0.132812 5.375 -0.1875 L 4.5625 -1.859375 C 4.476562 -1.835938 4.390625 -1.820312 4.296875 -1.8125 C 4.210938 -1.8125 4.125 -1.8125 4.03125 -1.8125 L 2.40625 -1.8125 L 2.40625 -0.21875 C 2.40625 -0.15625 2.378906 -0.101562 2.328125 -0.0625 C 2.285156 -0.0195312 2.234375 0 2.171875 0 L 1.171875 0 C 1.109375 0 1.050781 -0.0195312 1 -0.0625 C 0.957031 -0.101562 0.9375 -0.15625 0.9375 -0.21875 L 0.9375 -7.640625 C 0.9375 -7.710938 0.957031 -7.769531 1 -7.8125 C 1.050781 -7.851562 1.109375 -7.875 1.171875 -7.875 L 1.4375 -7.875 C 1.582031 -7.875 1.726562 -7.875 1.875 -7.875 C 2.019531 -7.875 2.125 -7.875 2.1875 -7.875 L 4.03125 -7.875 C 4.488281 -7.875 4.910156 -7.796875 5.296875 -7.640625 C 5.691406 -7.492188 6.03125 -7.28125 6.3125 -7 C 6.59375 -6.726562 6.8125 -6.40625 6.96875 -6.03125 C 7.132812 -5.664062 7.21875 -5.257812 7.21875 -4.8125 C 7.21875 -4.28125 7.097656 -3.796875 6.859375 -3.359375 C 6.617188 -2.929688 6.289062 -2.585938 5.875 -2.328125 Z M 3.9375 -3.046875 C 4.289062 -3.046875 4.601562 -3.117188 4.875 -3.265625 C 5.144531 -3.421875 5.359375 -3.632812 5.515625 -3.90625 C 5.671875 -4.175781 5.75 -4.484375 5.75 -4.828125 C 5.75 -5.085938 5.703125 -5.320312 5.609375 -5.53125 C 5.515625 -5.75 5.382812 -5.9375 5.21875 -6.09375 C 5.0625 -6.25 4.875 -6.367188 4.65625 -6.453125 C 4.4375 -6.546875 4.195312 -6.59375 3.9375 -6.59375 L 2.40625 -6.59375 L 2.40625 -3.046875 Z M 3.9375 -3.046875 "/></g></g></g><g fill="#f7fbfa" fill-opacity="1"><g transform="translate(102.168534, 329.257507)"><g><path d="M 6.640625 -1.390625 C 6.734375 -1.390625 6.804688 -1.363281 6.859375 -1.3125 C 6.921875 -1.257812 6.953125 -1.1875 6.953125 -1.09375 L 6.953125 -0.234375 C 6.953125 -0.160156 6.929688 -0.101562 6.890625 -0.0625 C 6.847656 -0.0195312 6.789062 0 6.71875 0 L 1.171875 0 C 1.015625 0 0.9375 -0.078125 0.9375 -0.234375 L 0.9375 -7.640625 C 0.9375 -7.796875 1.015625 -7.875 1.171875 -7.875 L 6.609375 -7.875 C 6.679688 -7.875 6.738281 -7.851562 6.78125 -7.8125 C 6.820312 -7.769531 6.84375 -7.710938 6.84375 -7.640625 L 6.84375 -6.71875 C 6.84375 -6.5625 6.765625 -6.484375 6.609375 -6.484375 L 2.40625 -6.484375 L 2.40625 -4.3125 L 5.6875 -4.3125 C 5.78125 -4.3125 5.847656 -4.289062 5.890625 -4.25 C 5.941406 -4.207031 5.96875 -4.144531 5.96875 -4.0625 L 5.96875 -3.203125 C 5.96875 -3.128906 5.941406 -3.070312 5.890625 -3.03125 C 5.847656 -2.988281 5.78125 -2.96875 5.6875 -2.96875 L 2.40625 -2.96875 L 2.40625 -1.390625 Z M 6.640625 -1.390625 "/></g></g></g><g fill="#f7fbfa" fill-opacity="1"><g transform="translate(111.420304, 329.257507)"><g><path d="M 6.640625 -1.390625 C 6.734375 -1.390625 6.804688 -1.363281 6.859375 -1.3125 C 6.921875 -1.257812 6.953125 -1.1875 6.953125 -1.09375 L 6.953125 -0.234375 C 6.953125 -0.160156 6.929688 -0.101562 6.890625 -0.0625 C 6.847656 -0.0195312 6.789062 0 6.71875 0 L 1.171875 0 C 1.015625 0 0.9375 -0.078125 0.9375 -0.234375 L 0.9375 -7.640625 C 0.9375 -7.796875 1.015625 -7.875 1.171875 -7.875 L 6.609375 -7.875 C 6.679688 -7.875 6.738281 -7.851562 6.78125 -7.8125 C 6.820312 -7.769531 6.84375 -7.710938 6.84375 -7.640625 L 6.84375 -6.71875 C 6.84375 -6.5625 6.765625 -6.484375 6.609375 -6.484375 L 2.40625 -6.484375 L 2.40625 -4.3125 L 5.6875 -4.3125 C 5.78125 -4.3125 5.847656 -4.289062 5.890625 -4.25 C 5.941406 -4.207031 5.96875 -4.144531 5.96875 -4.0625 L 5.96875 -3.203125 C 5.96875 -3.128906 5.941406 -3.070312 5.890625 -3.03125 C 5.847656 -2.988281 5.78125 -2.96875 5.6875 -2.96875 L 2.40625 -2.96875 L 2.40625 -1.390625 Z M 6.640625 -1.390625 "/></g></g></g><g fill="#f7fbfa" fill-opacity="1"><g transform="translate(120.672073, 329.257507)"><g><path d="M 5.875 -2.328125 L 6.9375 -0.265625 C 6.976562 -0.191406 6.984375 -0.128906 6.953125 -0.078125 C 6.921875 -0.0234375 6.863281 0 6.78125 0 L 5.640625 0 C 5.597656 0 5.550781 -0.015625 5.5 -0.046875 C 5.445312 -0.0859375 5.40625 -0.132812 5.375 -0.1875 L 4.5625 -1.859375 C 4.476562 -1.835938 4.390625 -1.820312 4.296875 -1.8125 C 4.210938 -1.8125 4.125 -1.8125 4.03125 -1.8125 L 2.40625 -1.8125 L 2.40625 -0.21875 C 2.40625 -0.15625 2.378906 -0.101562 2.328125 -0.0625 C 2.285156 -0.0195312 2.234375 0 2.171875 0 L 1.171875 0 C 1.109375 0 1.050781 -0.0195312 1 -0.0625 C 0.957031 -0.101562 0.9375 -0.15625 0.9375 -0.21875 L 0.9375 -7.640625 C 0.9375 -7.710938 0.957031 -7.769531 1 -7.8125 C 1.050781 -7.851562 1.109375 -7.875 1.171875 -7.875 L 1.4375 -7.875 C 1.582031 -7.875 1.726562 -7.875 1.875 -7.875 C 2.019531 -7.875 2.125 -7.875 2.1875 -7.875 L 4.03125 -7.875 C 4.488281 -7.875 4.910156 -7.796875 5.296875 -7.640625 C 5.691406 -7.492188 6.03125 -7.28125 6.3125 -7 C 6.59375 -6.726562 6.8125 -6.40625 6.96875 -6.03125 C 7.132812 -5.664062 7.21875 -5.257812 7.21875 -4.8125 C 7.21875 -4.28125 7.097656 -3.796875 6.859375 -3.359375 C 6.617188 -2.929688 6.289062 -2.585938 5.875 -2.328125 Z M 3.9375 -3.046875 C 4.289062 -3.046875 4.601562 -3.117188 4.875 -3.265625 C 5.144531 -3.421875 5.359375 -3.632812 5.515625 -3.90625 C 5.671875 -4.175781 5.75 -4.484375 5.75 -4.828125 C 5.75 -5.085938 5.703125 -5.320312 5.609375 -5.53125 C 5.515625 -5.75 5.382812 -5.9375 5.21875 -6.09375 C 5.0625 -6.25 4.875 -6.367188 4.65625 -6.453125 C 4.4375 -6.546875 4.195312 -6.59375 3.9375 -6.59375 L 2.40625 -6.59375 L 2.40625 -3.046875 Z M 3.9375 -3.046875 "/></g></g></g><g fill="#f7fbfa" fill-opacity="1"><g transform="translate(130.301452, 329.257507)"><g/></g></g><g fill="#f7fbfa" fill-opacity="1"><g transform="translate(135.415038, 329.257507)"><g><path d="M 0.9375 -0.234375 L 0.9375 -7.640625 C 0.9375 -7.710938 0.957031 -7.769531 1 -7.8125 C 1.050781 -7.851562 1.109375 -7.875 1.171875 -7.875 L 4.0625 -7.875 C 4.53125 -7.875 4.96875 -7.804688 5.375 -7.671875 C 5.78125 -7.546875 6.144531 -7.367188 6.46875 -7.140625 C 6.800781 -6.910156 7.082031 -6.628906 7.3125 -6.296875 C 7.550781 -5.972656 7.734375 -5.609375 7.859375 -5.203125 C 7.992188 -4.804688 8.0625 -4.382812 8.0625 -3.9375 C 8.0625 -3.476562 7.992188 -3.050781 7.859375 -2.65625 C 7.734375 -2.257812 7.550781 -1.894531 7.3125 -1.5625 C 7.082031 -1.238281 6.800781 -0.957031 6.46875 -0.71875 C 6.132812 -0.488281 5.765625 -0.3125 5.359375 -0.1875 C 4.953125 -0.0625 4.515625 0 4.046875 0 L 1.171875 0 C 1.109375 0 1.050781 -0.0195312 1 -0.0625 C 0.957031 -0.101562 0.9375 -0.160156 0.9375 -0.234375 Z M 2.40625 -1.390625 L 4.046875 -1.390625 C 4.410156 -1.390625 4.75 -1.453125 5.0625 -1.578125 C 5.375 -1.710938 5.644531 -1.894531 5.875 -2.125 C 6.101562 -2.363281 6.28125 -2.632812 6.40625 -2.9375 C 6.53125 -3.25 6.59375 -3.582031 6.59375 -3.9375 C 6.59375 -4.289062 6.53125 -4.625 6.40625 -4.9375 C 6.28125 -5.25 6.101562 -5.519531 5.875 -5.75 C 5.644531 -5.988281 5.375 -6.171875 5.0625 -6.296875 C 4.757812 -6.429688 4.425781 -6.5 4.0625 -6.5 L 2.40625 -6.5 Z M 2.40625 -1.390625 "/></g></g></g><g fill="#f7fbfa" fill-opacity="1"><g transform="translate(145.706526, 329.257507)"><g><path d="M 6.640625 -1.390625 C 6.734375 -1.390625 6.804688 -1.363281 6.859375 -1.3125 C 6.921875 -1.257812 6.953125 -1.1875 6.953125 -1.09375 L 6.953125 -0.234375 C 6.953125 -0.160156 6.929688 -0.101562 6.890625 -0.0625 C 6.847656 -0.0195312 6.789062 0 6.71875 0 L 1.171875 0 C 1.015625 0 0.9375 -0.078125 0.9375 -0.234375 L 0.9375 -7.640625 C 0.9375 -7.796875 1.015625 -7.875 1.171875 -7.875 L 6.609375 -7.875 C 6.679688 -7.875 6.738281 -7.851562 6.78125 -7.8125 C 6.820312 -7.769531 6.84375 -7.710938 6.84375 -7.640625 L 6.84375 -6.71875 C 6.84375 -6.5625 6.765625 -6.484375 6.609375 -6.484375 L 2.40625 -6.484375 L 2.40625 -4.3125 L 5.6875 -4.3125 C 5.78125 -4.3125 5.847656 -4.289062 5.890625 -4.25 C 5.941406 -4.207031 5.96875 -4.144531 5.96875 -4.0625 L 5.96875 -3.203125 C 5.96875 -3.128906 5.941406 -3.070312 5.890625 -3.03125 C 5.847656 -2.988281 5.78125 -2.96875 5.6875 -2.96875 L 2.40625 -2.96875 L 2.40625 -1.390625 Z M 6.640625 -1.390625 "/></g></g></g><g fill="#f7fbfa" fill-opacity="1"><g transform="translate(154.958295, 329.257507)"><g><path d="M 7.5 -7.875 C 7.582031 -7.875 7.640625 -7.847656 7.671875 -7.796875 C 7.703125 -7.742188 7.695312 -7.679688 7.65625 -7.609375 L 4.28125 -0.125 C 4.207031 0.0390625 4.109375 0.125 3.984375 0.125 L 3.953125 0.125 C 3.816406 0.125 3.710938 0.0390625 3.640625 -0.125 L 0.28125 -7.609375 C 0.238281 -7.679688 0.234375 -7.742188 0.265625 -7.796875 C 0.304688 -7.847656 0.367188 -7.875 0.453125 -7.875 L 1.546875 -7.875 C 1.617188 -7.875 1.675781 -7.851562 1.71875 -7.8125 C 1.769531 -7.769531 1.804688 -7.722656 1.828125 -7.671875 L 3.96875 -2.703125 L 6.109375 -7.671875 C 6.140625 -7.734375 6.175781 -7.78125 6.21875 -7.8125 C 6.257812 -7.851562 6.3125 -7.875 6.375 -7.875 Z M 7.5 -7.875 "/></g></g></g><g fill="#f7fbfa" fill-opacity="1"><g transform="translate(164.665265, 329.257507)"><g><path d="M 6.640625 -1.390625 C 6.734375 -1.390625 6.804688 -1.363281 6.859375 -1.3125 C 6.921875 -1.257812 6.953125 -1.1875 6.953125 -1.09375 L 6.953125 -0.234375 C 6.953125 -0.160156 6.929688 -0.101562 6.890625 -0.0625 C 6.847656 -0.0195312 6.789062 0 6.71875 0 L 1.171875 0 C 1.015625 0 0.9375 -0.078125 0.9375 -0.234375 L 0.9375 -7.640625 C 0.9375 -7.796875 1.015625 -7.875 1.171875 -7.875 L 6.609375 -7.875 C 6.679688 -7.875 6.738281 -7.851562 6.78125 -7.8125 C 6.820312 -7.769531 6.84375 -7.710938 6.84375 -7.640625 L 6.84375 -6.71875 C 6.84375 -6.5625 6.765625 -6.484375 6.609375 -6.484375 L 2.40625 -6.484375 L 2.40625 -4.3125 L 5.6875 -4.3125 C 5.78125 -4.3125 5.847656 -4.289062 5.890625 -4.25 C 5.941406 -4.207031 5.96875 -4.144531 5.96875 -4.0625 L 5.96875 -3.203125 C 5.96875 -3.128906 5.941406 -3.070312 5.890625 -3.03125 C 5.847656 -2.988281 5.78125 -2.96875 5.6875 -2.96875 L 2.40625 -2.96875 L 2.40625 -1.390625 Z M 6.640625 -1.390625 "/></g></g></g><g fill="#f7fbfa" fill-opacity="1"><g transform="translate(173.917034, 329.257507)"><g><path d="M 5.953125 -1.28125 C 6.066406 -1.28125 6.125 -1.222656 6.125 -1.109375 L 6.125 -0.171875 C 6.125 -0.0546875 6.066406 0 5.953125 0 L 1.109375 0 C 0.992188 0 0.9375 -0.0546875 0.9375 -0.171875 L 0.9375 -7.703125 C 0.9375 -7.816406 0.992188 -7.875 1.109375 -7.875 L 2.234375 -7.875 C 2.347656 -7.875 2.40625 -7.816406 2.40625 -7.703125 L 2.40625 -1.28125 Z M 5.953125 -1.28125 "/></g></g></g><g fill="#f7fbfa" fill-opacity="1"><g transform="translate(182.020458, 329.257507)"><g><path d="M 0.46875 -3.921875 C 0.46875 -4.378906 0.535156 -4.8125 0.671875 -5.21875 C 0.804688 -5.625 0.992188 -5.992188 1.234375 -6.328125 C 1.484375 -6.671875 1.773438 -6.960938 2.109375 -7.203125 C 2.453125 -7.453125 2.828125 -7.644531 3.234375 -7.78125 C 3.648438 -7.914062 4.085938 -7.984375 4.546875 -7.984375 C 5.003906 -7.984375 5.4375 -7.914062 5.84375 -7.78125 C 6.257812 -7.644531 6.632812 -7.453125 6.96875 -7.203125 C 7.3125 -6.960938 7.601562 -6.671875 7.84375 -6.328125 C 8.09375 -5.992188 8.285156 -5.625 8.421875 -5.21875 C 8.554688 -4.8125 8.625 -4.378906 8.625 -3.921875 C 8.625 -3.460938 8.554688 -3.03125 8.421875 -2.625 C 8.285156 -2.21875 8.09375 -1.847656 7.84375 -1.515625 C 7.601562 -1.179688 7.3125 -0.890625 6.96875 -0.640625 C 6.632812 -0.398438 6.257812 -0.210938 5.84375 -0.078125 C 5.4375 0.0546875 5.003906 0.125 4.546875 0.125 C 4.085938 0.125 3.648438 0.0546875 3.234375 -0.078125 C 2.828125 -0.210938 2.453125 -0.398438 2.109375 -0.640625 C 1.773438 -0.890625 1.484375 -1.179688 1.234375 -1.515625 C 0.992188 -1.847656 0.804688 -2.21875 0.671875 -2.625 C 0.535156 -3.03125 0.46875 -3.460938 0.46875 -3.921875 Z M 1.921875 -3.921875 C 1.921875 -3.554688 1.988281 -3.21875 2.125 -2.90625 C 2.257812 -2.59375 2.445312 -2.316406 2.6875 -2.078125 C 2.925781 -1.847656 3.203125 -1.664062 3.515625 -1.53125 C 3.835938 -1.40625 4.179688 -1.34375 4.546875 -1.34375 C 4.921875 -1.34375 5.265625 -1.40625 5.578125 -1.53125 C 5.890625 -1.664062 6.164062 -1.847656 6.40625 -2.078125 C 6.644531 -2.316406 6.832031 -2.59375 6.96875 -2.90625 C 7.101562 -3.21875 7.171875 -3.554688 7.171875 -3.921875 C 7.171875 -4.285156 7.101562 -4.625 6.96875 -4.9375 C 6.832031 -5.257812 6.644531 -5.539062 6.40625 -5.78125 C 6.164062 -6.019531 5.882812 -6.203125 5.5625 -6.328125 C 5.25 -6.460938 4.910156 -6.53125 4.546875 -6.53125 C 4.179688 -6.53125 3.835938 -6.460938 3.515625 -6.328125 C 3.203125 -6.203125 2.925781 -6.019531 2.6875 -5.78125 C 2.445312 -5.539062 2.257812 -5.257812 2.125 -4.9375 C 1.988281 -4.625 1.921875 -4.285156 1.921875 -3.921875 Z M 1.921875 -3.921875 "/></g></g></g><g fill="#f7fbfa" fill-opacity="1"><g transform="translate(192.886119, 329.257507)"><g><path d="M 3.4375 -7.875 C 3.945312 -7.875 4.410156 -7.796875 4.828125 -7.640625 C 5.242188 -7.484375 5.609375 -7.265625 5.921875 -6.984375 C 6.234375 -6.703125 6.472656 -6.367188 6.640625 -5.984375 C 6.816406 -5.609375 6.90625 -5.195312 6.90625 -4.75 C 6.90625 -4.300781 6.816406 -3.882812 6.640625 -3.5 C 6.472656 -3.125 6.234375 -2.796875 5.921875 -2.515625 C 5.609375 -2.242188 5.242188 -2.03125 4.828125 -1.875 C 4.410156 -1.726562 3.945312 -1.65625 3.4375 -1.65625 L 2.40625 -1.65625 L 2.40625 -0.21875 C 2.40625 -0.15625 2.382812 -0.101562 2.34375 -0.0625 C 2.300781 -0.0195312 2.242188 0 2.171875 0 L 1.171875 0 C 1.097656 0 1.039062 -0.0195312 1 -0.0625 C 0.957031 -0.101562 0.9375 -0.15625 0.9375 -0.21875 L 0.9375 -7.640625 C 0.9375 -7.710938 0.957031 -7.769531 1 -7.8125 C 1.039062 -7.851562 1.097656 -7.875 1.171875 -7.875 L 1.703125 -7.875 C 1.804688 -7.875 1.898438 -7.875 1.984375 -7.875 C 2.078125 -7.875 2.144531 -7.875 2.1875 -7.875 Z M 3.34375 -2.953125 C 3.644531 -2.953125 3.921875 -2.992188 4.171875 -3.078125 C 4.429688 -3.160156 4.65625 -3.28125 4.84375 -3.4375 C 5.039062 -3.601562 5.1875 -3.796875 5.28125 -4.015625 C 5.382812 -4.242188 5.4375 -4.492188 5.4375 -4.765625 C 5.4375 -5.023438 5.382812 -5.265625 5.28125 -5.484375 C 5.1875 -5.710938 5.039062 -5.90625 4.84375 -6.0625 C 4.65625 -6.226562 4.429688 -6.351562 4.171875 -6.4375 C 3.921875 -6.53125 3.644531 -6.578125 3.34375 -6.578125 L 2.40625 -6.578125 L 2.40625 -2.953125 Z M 3.34375 -2.953125 "/></g></g></g><g fill="#f7fbfa" fill-opacity="1"><g transform="translate(202.00857, 329.257507)"><g><path d="M 9.375 -0.234375 C 9.375 -0.148438 9.351562 -0.0859375 9.3125 -0.046875 C 9.269531 -0.015625 9.210938 0 9.140625 0 L 8.140625 0 C 8.066406 0 8.007812 -0.015625 7.96875 -0.046875 C 7.925781 -0.078125 7.90625 -0.132812 7.90625 -0.21875 L 7.53125 -4.0625 L 5.1875 -0.09375 C 5.144531 -0.0195312 5.109375 0.03125 5.078125 0.0625 C 5.046875 0.09375 5 0.109375 4.9375 0.109375 C 4.863281 0.109375 4.8125 0.09375 4.78125 0.0625 C 4.757812 0.03125 4.722656 -0.0195312 4.671875 -0.09375 L 2.34375 -4.0625 L 1.96875 -0.21875 C 1.957031 -0.132812 1.929688 -0.078125 1.890625 -0.046875 C 1.847656 -0.015625 1.789062 0 1.71875 0 L 0.71875 0 C 0.644531 0 0.585938 -0.015625 0.546875 -0.046875 C 0.503906 -0.0859375 0.484375 -0.148438 0.484375 -0.234375 L 1.25 -7.796875 C 1.257812 -7.921875 1.328125 -7.984375 1.453125 -7.984375 L 1.46875 -7.984375 C 1.539062 -7.984375 1.585938 -7.96875 1.609375 -7.9375 C 1.628906 -7.90625 1.660156 -7.863281 1.703125 -7.8125 L 4.9375 -2.328125 L 8.171875 -7.8125 C 8.203125 -7.863281 8.226562 -7.90625 8.25 -7.9375 C 8.269531 -7.96875 8.316406 -7.984375 8.390625 -7.984375 L 8.40625 -7.984375 C 8.519531 -7.984375 8.585938 -7.921875 8.609375 -7.796875 Z M 9.375 -0.234375 "/></g></g></g><g fill="#f7fbfa" fill-opacity="1"><g transform="translate(213.634622, 329.257507)"><g><path d="M 6.640625 -1.390625 C 6.734375 -1.390625 6.804688 -1.363281 6.859375 -1.3125 C 6.921875 -1.257812 6.953125 -1.1875 6.953125 -1.09375 L 6.953125 -0.234375 C 6.953125 -0.160156 6.929688 -0.101562 6.890625 -0.0625 C 6.847656 -0.0195312 6.789062 0 6.71875 0 L 1.171875 0 C 1.015625 0 0.9375 -0.078125 0.9375 -0.234375 L 0.9375 -7.640625 C 0.9375 -7.796875 1.015625 -7.875 1.171875 -7.875 L 6.609375 -7.875 C 6.679688 -7.875 6.738281 -7.851562 6.78125 -7.8125 C 6.820312 -7.769531 6.84375 -7.710938 6.84375 -7.640625 L 6.84375 -6.71875 C 6.84375 -6.5625 6.765625 -6.484375 6.609375 -6.484375 L 2.40625 -6.484375 L 2.40625 -4.3125 L 5.6875 -4.3125 C 5.78125 -4.3125 5.847656 -4.289062 5.890625 -4.25 C 5.941406 -4.207031 5.96875 -4.144531 5.96875 -4.0625 L 5.96875 -3.203125 C 5.96875 -3.128906 5.941406 -3.070312 5.890625 -3.03125 C 5.847656 -2.988281 5.78125 -2.96875 5.6875 -2.96875 L 2.40625 -2.96875 L 2.40625 -1.390625 Z M 6.640625 -1.390625 "/></g></g></g><g fill="#f7fbfa" fill-opacity="1"><g transform="translate(222.886391, 329.257507)"><g><path d="M 7.765625 -7.875 C 7.890625 -7.875 7.953125 -7.816406 7.953125 -7.703125 L 7.953125 -0.140625 C 7.953125 -0.0664062 7.929688 -0.0078125 7.890625 0.03125 C 7.847656 0.0820312 7.800781 0.109375 7.75 0.109375 L 7.734375 0.109375 C 7.671875 0.109375 7.613281 0.0859375 7.5625 0.046875 C 7.519531 0.00390625 7.46875 -0.0351562 7.40625 -0.078125 L 2.40625 -4.84375 L 2.40625 -0.171875 C 2.40625 -0.0546875 2.347656 0 2.234375 0 L 1.109375 0 C 0.992188 0 0.9375 -0.0546875 0.9375 -0.171875 L 0.9375 -7.75 C 0.9375 -7.8125 0.953125 -7.863281 0.984375 -7.90625 C 1.023438 -7.945312 1.070312 -7.96875 1.125 -7.96875 L 1.15625 -7.96875 C 1.207031 -7.96875 1.253906 -7.945312 1.296875 -7.90625 C 1.335938 -7.875 1.382812 -7.832031 1.4375 -7.78125 L 6.484375 -3.015625 L 6.484375 -7.703125 C 6.484375 -7.816406 6.539062 -7.875 6.65625 -7.875 Z M 7.765625 -7.875 "/></g></g></g><g fill="#f7fbfa" fill-opacity="1"><g transform="translate(233.53997, 329.257507)"><g><path d="M 0.3125 -6.828125 L 0.3125 -7.640625 C 0.3125 -7.796875 0.382812 -7.875 0.53125 -7.875 L 5.921875 -7.875 C 5.992188 -7.875 6.050781 -7.851562 6.09375 -7.8125 C 6.132812 -7.769531 6.15625 -7.710938 6.15625 -7.640625 L 6.15625 -6.828125 C 6.15625 -6.671875 6.078125 -6.59375 5.921875 -6.59375 L 3.953125 -6.59375 L 3.953125 -0.21875 C 3.953125 -0.0703125 3.875 0 3.71875 0 L 2.71875 0 C 2.5625 0 2.484375 -0.0703125 2.484375 -0.21875 L 2.484375 -6.59375 L 0.53125 -6.59375 C 0.46875 -6.59375 0.414062 -6.609375 0.375 -6.640625 C 0.332031 -6.679688 0.3125 -6.742188 0.3125 -6.828125 Z M 0.3125 -6.828125 "/></g></g></g><g fill="#f7fbfa" fill-opacity="1"><g transform="translate(241.767539, 329.257507)"><g/></g></g><g fill="#f7fbfa" fill-opacity="1"><g transform="translate(246.881125, 329.257507)"><g><path d="M 6.140625 -1.890625 C 6.203125 -1.941406 6.265625 -1.960938 6.328125 -1.953125 C 6.398438 -1.953125 6.453125 -1.925781 6.484375 -1.875 L 7.078125 -0.984375 C 7.109375 -0.941406 7.113281 -0.890625 7.09375 -0.828125 C 7.070312 -0.773438 7.03125 -0.726562 6.96875 -0.6875 C 6.757812 -0.519531 6.519531 -0.375 6.25 -0.25 C 5.988281 -0.132812 5.710938 -0.046875 5.421875 0.015625 C 5.140625 0.0859375 4.863281 0.125 4.59375 0.125 C 4.132812 0.125 3.695312 0.0546875 3.28125 -0.078125 C 2.863281 -0.210938 2.484375 -0.398438 2.140625 -0.640625 C 1.796875 -0.890625 1.5 -1.179688 1.25 -1.515625 C 1 -1.847656 0.804688 -2.21875 0.671875 -2.625 C 0.535156 -3.039062 0.46875 -3.472656 0.46875 -3.921875 C 0.46875 -4.378906 0.535156 -4.8125 0.671875 -5.21875 C 0.804688 -5.625 1 -5.992188 1.25 -6.328125 C 1.5 -6.671875 1.796875 -6.960938 2.140625 -7.203125 C 2.484375 -7.453125 2.863281 -7.644531 3.28125 -7.78125 C 3.695312 -7.914062 4.132812 -7.984375 4.59375 -7.984375 C 4.851562 -7.984375 5.128906 -7.953125 5.421875 -7.890625 C 5.710938 -7.828125 5.992188 -7.734375 6.265625 -7.609375 C 6.546875 -7.484375 6.789062 -7.335938 7 -7.171875 C 7.070312 -7.117188 7.109375 -7.0625 7.109375 -7 C 7.117188 -6.945312 7.109375 -6.898438 7.078125 -6.859375 L 6.484375 -5.96875 C 6.460938 -5.925781 6.421875 -5.898438 6.359375 -5.890625 C 6.296875 -5.878906 6.226562 -5.90625 6.15625 -5.96875 C 5.9375 -6.15625 5.6875 -6.296875 5.40625 -6.390625 C 5.125 -6.484375 4.851562 -6.53125 4.59375 -6.53125 C 4.21875 -6.53125 3.867188 -6.460938 3.546875 -6.328125 C 3.222656 -6.203125 2.941406 -6.019531 2.703125 -5.78125 C 2.460938 -5.539062 2.269531 -5.257812 2.125 -4.9375 C 1.988281 -4.625 1.921875 -4.285156 1.921875 -3.921875 C 1.921875 -3.554688 1.988281 -3.21875 2.125 -2.90625 C 2.269531 -2.59375 2.460938 -2.316406 2.703125 -2.078125 C 2.953125 -1.847656 3.234375 -1.664062 3.546875 -1.53125 C 3.867188 -1.40625 4.21875 -1.34375 4.59375 -1.34375 C 4.84375 -1.34375 5.109375 -1.390625 5.390625 -1.484375 C 5.671875 -1.578125 5.921875 -1.710938 6.140625 -1.890625 Z M 6.140625 -1.890625 "/></g></g></g><g fill="#f7fbfa" fill-opacity="1"><g transform="translate(256.282904, 329.257507)"><g><path d="M 6.640625 -1.390625 C 6.734375 -1.390625 6.804688 -1.363281 6.859375 -1.3125 C 6.921875 -1.257812 6.953125 -1.1875 6.953125 -1.09375 L 6.953125 -0.234375 C 6.953125 -0.160156 6.929688 -0.101562 6.890625 -0.0625 C 6.847656 -0.0195312 6.789062 0 6.71875 0 L 1.171875 0 C 1.015625 0 0.9375 -0.078125 0.9375 -0.234375 L 0.9375 -7.640625 C 0.9375 -7.796875 1.015625 -7.875 1.171875 -7.875 L 6.609375 -7.875 C 6.679688 -7.875 6.738281 -7.851562 6.78125 -7.8125 C 6.820312 -7.769531 6.84375 -7.710938 6.84375 -7.640625 L 6.84375 -6.71875 C 6.84375 -6.5625 6.765625 -6.484375 6.609375 -6.484375 L 2.40625 -6.484375 L 2.40625 -4.3125 L 5.6875 -4.3125 C 5.78125 -4.3125 5.847656 -4.289062 5.890625 -4.25 C 5.941406 -4.207031 5.96875 -4.144531 5.96875 -4.0625 L 5.96875 -3.203125 C 5.96875 -3.128906 5.941406 -3.070312 5.890625 -3.03125 C 5.847656 -2.988281 5.78125 -2.96875 5.6875 -2.96875 L 2.40625 -2.96875 L 2.40625 -1.390625 Z M 6.640625 -1.390625 "/></g></g></g><g fill="#f7fbfa" fill-opacity="1"><g transform="translate(265.534674, 329.257507)"><g><path d="M 7.765625 -7.875 C 7.890625 -7.875 7.953125 -7.816406 7.953125 -7.703125 L 7.953125 -0.140625 C 7.953125 -0.0664062 7.929688 -0.0078125 7.890625 0.03125 C 7.847656 0.0820312 7.800781 0.109375 7.75 0.109375 L 7.734375 0.109375 C 7.671875 0.109375 7.613281 0.0859375 7.5625 0.046875 C 7.519531 0.00390625 7.46875 -0.0351562 7.40625 -0.078125 L 2.40625 -4.84375 L 2.40625 -0.171875 C 2.40625 -0.0546875 2.347656 0 2.234375 0 L 1.109375 0 C 0.992188 0 0.9375 -0.0546875 0.9375 -0.171875 L 0.9375 -7.75 C 0.9375 -7.8125 0.953125 -7.863281 0.984375 -7.90625 C 1.023438 -7.945312 1.070312 -7.96875 1.125 -7.96875 L 1.15625 -7.96875 C 1.207031 -7.96875 1.253906 -7.945312 1.296875 -7.90625 C 1.335938 -7.875 1.382812 -7.832031 1.4375 -7.78125 L 6.484375 -3.015625 L 6.484375 -7.703125 C 6.484375 -7.816406 6.539062 -7.875 6.65625 -7.875 Z M 7.765625 -7.875 "/></g></g></g><g fill="#f7fbfa" fill-opacity="1"><g transform="translate(276.188252, 329.257507)"><g><path d="M 0.3125 -6.828125 L 0.3125 -7.640625 C 0.3125 -7.796875 0.382812 -7.875 0.53125 -7.875 L 5.921875 -7.875 C 5.992188 -7.875 6.050781 -7.851562 6.09375 -7.8125 C 6.132812 -7.769531 6.15625 -7.710938 6.15625 -7.640625 L 6.15625 -6.828125 C 6.15625 -6.671875 6.078125 -6.59375 5.921875 -6.59375 L 3.953125 -6.59375 L 3.953125 -0.21875 C 3.953125 -0.0703125 3.875 0 3.71875 0 L 2.71875 0 C 2.5625 0 2.484375 -0.0703125 2.484375 -0.21875 L 2.484375 -6.59375 L 0.53125 -6.59375 C 0.46875 -6.59375 0.414062 -6.609375 0.375 -6.640625 C 0.332031 -6.679688 0.3125 -6.742188 0.3125 -6.828125 Z M 0.3125 -6.828125 "/></g></g></g><g fill="#f7fbfa" fill-opacity="1"><g transform="translate(284.415822, 329.257507)"><g><path d="M 6.640625 -1.390625 C 6.734375 -1.390625 6.804688 -1.363281 6.859375 -1.3125 C 6.921875 -1.257812 6.953125 -1.1875 6.953125 -1.09375 L 6.953125 -0.234375 C 6.953125 -0.160156 6.929688 -0.101562 6.890625 -0.0625 C 6.847656 -0.0195312 6.789062 0 6.71875 0 L 1.171875 0 C 1.015625 0 0.9375 -0.078125 0.9375 -0.234375 L 0.9375 -7.640625 C 0.9375 -7.796875 1.015625 -7.875 1.171875 -7.875 L 6.609375 -7.875 C 6.679688 -7.875 6.738281 -7.851562 6.78125 -7.8125 C 6.820312 -7.769531 6.84375 -7.710938 6.84375 -7.640625 L 6.84375 -6.71875 C 6.84375 -6.5625 6.765625 -6.484375 6.609375 -6.484375 L 2.40625 -6.484375 L 2.40625 -4.3125 L 5.6875 -4.3125 C 5.78125 -4.3125 5.847656 -4.289062 5.890625 -4.25 C 5.941406 -4.207031 5.96875 -4.144531 5.96875 -4.0625 L 5.96875 -3.203125 C 5.96875 -3.128906 5.941406 -3.070312 5.890625 -3.03125 C 5.847656 -2.988281 5.78125 -2.96875 5.6875 -2.96875 L 2.40625 -2.96875 L 2.40625 -1.390625 Z M 6.640625 -1.390625 "/></g></g></g><g fill="#f7fbfa" fill-opacity="1"><g transform="translate(293.667591, 329.257507)"><g><path d="M 5.875 -2.328125 L 6.9375 -0.265625 C 6.976562 -0.191406 6.984375 -0.128906 6.953125 -0.078125 C 6.921875 -0.0234375 6.863281 0 6.78125 0 L 5.640625 0 C 5.597656 0 5.550781 -0.015625 5.5 -0.046875 C 5.445312 -0.0859375 5.40625 -0.132812 5.375 -0.1875 L 4.5625 -1.859375 C 4.476562 -1.835938 4.390625 -1.820312 4.296875 -1.8125 C 4.210938 -1.8125 4.125 -1.8125 4.03125 -1.8125 L 2.40625 -1.8125 L 2.40625 -0.21875 C 2.40625 -0.15625 2.378906 -0.101562 2.328125 -0.0625 C 2.285156 -0.0195312 2.234375 0 2.171875 0 L 1.171875 0 C 1.109375 0 1.050781 -0.0195312 1 -0.0625 C 0.957031 -0.101562 0.9375 -0.15625 0.9375 -0.21875 L 0.9375 -7.640625 C 0.9375 -7.710938 0.957031 -7.769531 1 -7.8125 C 1.050781 -7.851562 1.109375 -7.875 1.171875 -7.875 L 1.4375 -7.875 C 1.582031 -7.875 1.726562 -7.875 1.875 -7.875 C 2.019531 -7.875 2.125 -7.875 2.1875 -7.875 L 4.03125 -7.875 C 4.488281 -7.875 4.910156 -7.796875 5.296875 -7.640625 C 5.691406 -7.492188 6.03125 -7.28125 6.3125 -7 C 6.59375 -6.726562 6.8125 -6.40625 6.96875 -6.03125 C 7.132812 -5.664062 7.21875 -5.257812 7.21875 -4.8125 C 7.21875 -4.28125 7.097656 -3.796875 6.859375 -3.359375 C 6.617188 -2.929688 6.289062 -2.585938 5.875 -2.328125 Z M 3.9375 -3.046875 C 4.289062 -3.046875 4.601562 -3.117188 4.875 -3.265625 C 5.144531 -3.421875 5.359375 -3.632812 5.515625 -3.90625 C 5.671875 -4.175781 5.75 -4.484375 5.75 -4.828125 C 5.75 -5.085938 5.703125 -5.320312 5.609375 -5.53125 C 5.515625 -5.75 5.382812 -5.9375 5.21875 -6.09375 C 5.0625 -6.25 4.875 -6.367188 4.65625 -6.453125 C 4.4375 -6.546875 4.195312 -6.59375 3.9375 -6.59375 L 2.40625 -6.59375 L 2.40625 -3.046875 Z M 3.9375 -3.046875 "/></g></g></g></svg>